<svg version="1.1" id="Layer_1" xmlns="http://www.w3.org/2000/svg" xmlns:xlink="http://www.w3.org/1999/xlink" x="0px" y="0px"
	 width="100%" viewBox="0 0 2000 637" enable-background="new 0 0 2000 637" xml:space="preserve">
<path fill="#1E222B" opacity="1.000000" stroke="none" 
	d="
M1385.000000,638.000000 
	C923.333313,638.000000 462.166656,638.000000 1.000000,638.000000 
	C1.000000,425.666656 1.000000,213.333328 1.000000,1.000000 
	C667.666687,1.000000 1334.333374,1.000000 2001.000000,1.000000 
	C2001.000000,213.333328 2001.000000,425.666656 2001.000000,638.000000 
	C1795.833374,638.000000 1590.666626,638.000000 1385.000000,638.000000 
M694.500000,423.999847 
	C946.466797,423.999847 1198.433594,423.999817 1450.400391,423.999756 
	C1452.066772,423.999756 1453.733765,424.023987 1455.399536,423.993774 
	C1459.650146,423.916656 1461.418579,421.955627 1459.649780,418.195129 
	C1459.000366,416.814667 1455.671143,416.086212 1453.564209,416.085785 
	C1017.455261,415.996857 581.346313,415.999603 145.237396,416.001221 
	C138.288040,416.001251 137.908157,416.521759 139.842102,423.999847 
	C324.297882,423.999847 508.898956,423.999847 694.500000,423.999847 
M1647.884888,236.389908 
	C1615.806885,254.916367 1601.796265,287.756104 1610.278076,323.648743 
	C1612.297363,332.194122 1613.896973,340.967010 1614.400269,349.709503 
	C1615.019287,360.461121 1615.126709,371.443604 1609.145508,381.216553 
	C1608.541382,382.203674 1607.622803,383.124420 1606.636353,383.725037 
	C1604.579956,384.977295 1601.233398,385.536041 1600.554443,387.234314 
	C1599.839600,389.022278 1601.618530,391.807220 1602.650879,395.325867 
	C1601.630859,397.680664 1600.058838,401.310059 1598.486694,404.939453 
	C1598.168335,404.552429 1597.849976,404.165405 1597.531616,403.778381 
	C1595.090210,405.413147 1591.522461,406.524628 1590.464355,408.802094 
	C1588.766235,412.457458 1592.397339,414.058533 1595.253052,415.666962 
	C1596.457153,416.345062 1597.642334,417.925568 1597.902832,419.276001 
	C1600.573608,433.116089 1608.400757,442.722260 1621.832275,446.771637 
	C1636.265747,451.123047 1648.761353,447.195404 1658.755249,435.714233 
	C1659.540405,434.812225 1660.703003,434.156921 1661.806396,433.631012 
	C1663.979980,432.595062 1667.535278,432.229767 1668.133911,430.671051 
	C1668.912354,428.643768 1667.369141,425.724792 1666.546021,421.888336 
	C1671.152710,406.179260 1681.286133,392.523285 1696.589966,382.982178 
	C1704.053711,378.328979 1711.886353,374.255951 1719.630859,370.066193 
	C1765.854126,345.059967 1773.158569,279.886444 1733.515625,245.415359 
	C1711.539673,226.306519 1678.364014,220.333771 1647.884888,236.389908 
M191.500000,344.005859 
	C206.415482,344.005859 221.330963,344.005859 236.339142,344.005859 
	C236.339142,337.646149 236.339142,331.898468 236.339142,325.624268 
	C214.874176,325.624268 193.657791,325.624268 172.413345,325.624268 
	C172.413345,320.355255 172.413345,315.622375 172.413345,310.560516 
	C189.690414,310.560516 206.633087,310.560516 223.747955,310.560516 
	C223.747955,304.531311 223.747955,298.846680 223.747955,292.722046 
	C206.344238,292.722046 189.286301,292.722046 172.453781,292.722046 
	C172.453781,288.046997 172.453781,283.824768 172.453781,279.137146 
	C193.546005,279.137146 214.264252,279.137146 234.991394,279.137146 
	C234.991394,272.863556 234.991394,267.070282 234.991394,261.330017 
	C206.095886,261.330017 177.383301,261.330017 148.707932,261.330017 
	C148.707932,289.042114 148.707932,316.416840 148.707932,344.005859 
	C162.871826,344.005859 176.685913,344.005859 191.500000,344.005859 
M1447.303955,350.751343 
	C1448.628052,345.812836 1450.958862,340.902252 1451.096924,335.930817 
	C1451.614258,317.287109 1451.418091,298.623566 1451.460205,279.967377 
	C1451.460693,279.713226 1451.084351,279.458252 1450.877319,279.215515 
	C1443.426514,279.215515 1435.975830,279.215515 1428.321289,279.215515 
	C1428.157837,281.922516 1428.006470,284.429993 1427.832886,287.303436 
	C1412.595337,273.249664 1389.528442,272.301697 1376.270020,284.780518 
	C1364.621948,295.743652 1363.221436,318.309265 1373.411011,331.138550 
	C1379.027100,338.209717 1386.662842,341.612854 1395.373657,342.652924 
	C1407.645264,344.118103 1418.717529,341.350891 1427.794800,331.947723 
	C1428.823608,345.318695 1422.928223,352.078583 1409.970093,352.985382 
	C1399.207520,353.738556 1388.887939,352.011688 1379.028687,346.880280 
	C1376.929810,352.341797 1374.997925,357.368622 1373.092896,362.325500 
	C1386.384155,369.360962 1407.742188,371.886353 1422.248535,368.426208 
	C1432.696899,365.933960 1441.448364,361.040405 1447.303955,350.751343 
M664.906494,290.665222 
	C660.457031,284.469238 654.382019,280.492401 647.187927,278.377197 
	C635.035461,274.804138 622.815491,274.986359 610.855103,279.164673 
	C596.392273,284.217224 588.275513,296.167297 588.295410,311.670013 
	C588.314819,326.744019 596.101562,338.117371 610.423950,343.379181 
	C622.966431,347.987030 635.829163,348.025177 648.774963,345.204132 
	C656.036316,343.621735 662.588989,340.632568 668.385376,335.340393 
	C664.387573,331.161652 660.525208,327.124542 656.652283,323.076355 
	C645.794434,331.145752 634.104553,331.860596 622.001099,328.909546 
	C615.297974,327.275208 611.694824,322.780762 611.383362,316.711792 
	C613.047180,316.711792 614.697021,316.711823 616.346863,316.711792 
	C632.835999,316.711761 649.327332,316.562866 665.812622,316.816132 
	C669.949219,316.879639 671.070435,315.403046 670.929932,311.657623 
	C670.657532,304.395508 669.450256,297.443024 664.906494,290.665222 
M384.806274,308.928436 
	C384.206085,328.246857 393.434967,340.469177 412.130066,345.080017 
	C423.850616,347.970703 435.597748,347.738770 447.206238,344.706635 
	C453.585815,343.040253 459.615875,340.358246 464.770508,334.951477 
	C460.517700,331.069397 456.487396,327.390411 452.212402,323.488098 
	C443.736237,330.335663 433.472931,331.172516 422.796295,329.965607 
	C413.939209,328.964386 408.734619,324.574738 407.285248,316.711304 
	C409.152863,316.711304 410.948792,316.711334 412.744720,316.711304 
	C429.398102,316.711243 446.051697,316.670349 462.704681,316.751617 
	C465.444153,316.764984 466.903931,316.324951 467.097565,313.041595 
	C468.093597,296.152039 458.830261,282.672455 442.579742,278.105927 
	C431.585907,275.016571 420.495392,275.168640 409.558624,278.325836 
	C394.790009,282.589172 386.109528,293.221771 384.806274,308.928436 
M1031.681274,277.101013 
	C1030.389282,277.413788 1029.090942,277.702667 1027.806274,278.042969 
	C1011.256348,282.427094 1001.513062,294.606995 1001.307556,311.156921 
	C1001.102539,327.668243 1011.039185,340.445465 1027.683960,344.912018 
	C1037.158325,347.454407 1046.750122,347.632080 1056.392700,345.924530 
	C1074.624878,342.695892 1086.277222,330.104736 1086.891724,312.961365 
	C1087.535522,295.000702 1077.535034,281.746704 1058.744019,277.936432 
	C1050.291992,276.222565 1041.287598,277.232849 1031.681274,277.101013 
M1319.242798,283.242950 
	C1312.310425,277.059967 1303.997925,275.403107 1295.079102,276.145172 
	C1286.079834,276.893951 1278.349121,280.528320 1271.653076,288.444031 
	C1271.653076,284.482727 1271.653076,281.896118 1271.653076,279.187439 
	C1263.827148,279.187439 1256.396240,279.187439 1248.728882,279.187439 
	C1248.728882,300.784760 1248.728882,322.190308 1248.728882,343.667053 
	C1256.496826,343.667053 1264.037720,343.667053 1271.840332,343.667053 
	C1271.840332,331.700989 1271.715088,320.067871 1271.947876,308.441925 
	C1271.993408,306.166077 1272.963501,303.583893 1274.308594,301.721863 
	C1277.880371,296.777679 1282.954468,294.104919 1289.070801,293.448853 
	C1298.130371,292.477203 1303.958008,297.043915 1304.578613,306.116028 
	C1304.952881,311.585358 1304.718384,317.097260 1304.730469,322.590088 
	C1304.745850,329.666107 1304.734253,336.742188 1304.734253,343.720886 
	C1312.817627,343.720886 1320.237183,343.720886 1327.733643,343.720886 
	C1327.733643,329.653046 1327.960327,315.862885 1327.638672,302.085480 
	C1327.475708,295.108246 1324.846558,288.794189 1319.242798,283.242950 
M1205.042358,325.499390 
	C1205.042358,310.078583 1205.042358,294.657745 1205.042358,279.261292 
	C1197.026611,279.261292 1189.610718,279.261292 1181.896118,279.261292 
	C1181.896118,289.819336 1181.895996,300.116150 1181.895996,310.412964 
	C1181.895996,318.705170 1178.325562,323.984222 1170.601562,327.111969 
	C1157.973389,332.225647 1148.983154,326.278656 1148.963501,312.779175 
	C1148.947388,301.663605 1148.960205,290.547943 1148.960205,279.322571 
	C1140.984741,279.322571 1133.434814,279.322571 1125.903442,279.322571 
	C1125.903442,292.803192 1125.590820,305.968384 1125.983154,319.112518 
	C1126.464111,335.222534 1137.352661,345.556519 1153.474731,345.978760 
	C1164.449707,346.266205 1173.937134,342.887634 1182.050049,333.488434 
	C1182.050049,337.767395 1182.050049,340.803009 1182.050049,343.710693 
	C1189.979004,343.710693 1197.392578,343.710693 1205.042358,343.710693 
	C1205.042358,337.780396 1205.042358,332.139587 1205.042358,325.499390 
M950.630371,306.164917 
	C961.109253,291.285583 971.588135,276.406219 982.441406,260.995209 
	C975.336731,260.995209 969.146179,261.399658 963.035339,260.874969 
	C957.552673,260.404175 954.381653,262.324127 951.511047,266.996948 
	C945.353516,277.020355 938.513245,286.624390 931.718384,296.749084 
	C924.136780,285.479706 916.920776,274.705719 909.627869,263.984039 
	C908.848206,262.837708 907.641968,261.174164 906.594604,261.144928 
	C898.232300,260.911621 889.860535,261.014740 880.766479,261.014740 
	C893.132751,278.533844 905.022278,295.170380 916.608887,312.015320 
	C918.349365,314.545593 919.348267,318.014099 919.517029,321.112488 
	C919.928345,328.665314 919.651001,336.255646 919.651001,343.607361 
	C928.101807,343.607361 935.831055,343.607361 943.744202,343.607361 
	C943.744202,337.892792 944.159485,332.533905 943.646973,327.265320 
	C942.877441,319.355011 944.647827,312.510071 950.630371,306.164917 
M742.467346,295.347046 
	C749.229919,295.347046 755.992493,295.347046 762.732666,295.347046 
	C762.732666,289.599548 762.732666,284.496338 762.732666,278.985107 
	C754.434509,278.985107 746.352173,278.985107 737.848999,278.985107 
	C737.848999,273.841034 737.848999,269.094208 737.848999,264.212341 
	C729.895630,264.212341 722.380371,264.212341 714.400879,264.212341 
	C714.400879,269.287170 714.400879,274.021301 714.400879,279.162354 
	C710.357117,279.162354 706.773010,279.162354 703.172729,279.162354 
	C703.172729,284.718048 703.172729,289.830566 703.172729,295.471985 
	C706.921997,295.471985 710.506531,295.471985 714.579834,295.471985 
	C714.579834,297.785614 714.568970,299.575409 714.581665,301.364990 
	C714.637329,309.190308 714.497131,317.023926 714.820801,324.838287 
	C715.104431,331.686737 718.158752,337.267120 723.868286,341.253815 
	C733.924561,348.275574 753.780029,347.251129 763.463379,339.052155 
	C762.244141,334.390228 760.996582,329.619965 759.859131,325.270844 
	C755.497986,326.022736 751.611084,327.188263 747.705261,327.255188 
	C741.131409,327.367767 737.968689,323.932098 737.884338,317.389618 
	C737.804993,311.228882 738.000549,305.062042 737.804199,298.906525 
	C737.713135,296.051727 738.641235,294.897278 742.467346,295.347046 
M829.781128,264.818085 
	C822.168457,264.368774 814.555786,263.919495 806.454163,263.441345 
	C806.454163,269.224030 806.454163,273.967346 806.454163,279.116394 
	C802.426697,279.116394 798.835632,279.116394 795.138672,279.116394 
	C795.138672,284.669281 795.138672,289.789764 795.138672,295.428864 
	C798.859680,295.428864 802.447388,295.428864 806.579834,295.428864 
	C806.579834,297.724457 806.569336,299.508698 806.581543,301.292816 
	C806.635193,309.119568 806.490356,316.954742 806.813232,324.770508 
	C807.113159,332.029510 810.463440,337.810242 816.632385,341.791260 
	C826.650635,348.256195 845.846008,346.983154 855.473328,339.088043 
	C854.256897,334.431213 853.009338,329.655151 851.948669,325.594452 
	C846.886536,326.148376 842.323303,327.089935 837.776550,327.015808 
	C833.571899,326.947235 830.280457,324.332733 830.084961,319.930450 
	C829.725159,311.826904 829.982300,303.695984 829.982300,295.170898 
	C838.533630,295.170898 846.636414,295.170898 854.749817,295.170898 
	C854.749817,289.645020 854.749817,284.537476 854.749817,278.846771 
	C846.350891,278.846771 838.145020,278.846771 829.854309,278.846771 
	C829.854309,274.096375 829.854309,269.933868 829.781128,264.818085 
M322.877808,344.000153 
	C324.013977,342.785767 325.519958,341.755585 326.230469,340.329163 
	C335.787598,321.141968 345.239288,301.902191 354.693207,282.663727 
	C355.218140,281.595520 355.534271,280.424713 356.014008,279.121216 
	C347.830750,279.121216 340.179810,279.121216 332.365417,279.121216 
	C329.147888,286.268738 325.965271,293.381195 322.746490,300.477234 
	C319.502197,307.629456 316.221985,314.765381 312.662842,322.553253 
	C306.410980,308.654480 300.613800,295.598663 294.606659,282.640198 
	C293.914795,281.147766 292.101074,279.226654 290.725983,279.158875 
	C283.611084,278.808289 276.469635,278.995941 268.820984,278.995941 
	C269.717438,281.036499 270.371460,282.685486 271.150269,284.273254 
	C278.835083,299.939423 286.529816,315.600739 294.247345,331.250824 
	C296.300873,335.415100 297.443634,341.221924 300.814636,343.218719 
	C304.428040,345.359039 310.175751,343.912262 314.992615,343.997711 
	C317.324677,344.039124 319.658051,344.004608 322.877808,344.000153 
M539.557739,280.984406 
	C536.248718,283.572845 532.939697,286.161285 529.120728,289.148651 
	C529.120728,285.631744 529.120728,282.430542 529.120728,279.242859 
	C521.159729,279.242859 513.744263,279.242859 506.245850,279.242859 
	C506.245850,300.884735 506.245850,322.279327 506.245850,343.789520 
	C513.914001,343.789520 521.331360,343.789520 529.169434,343.789520 
	C529.169434,335.467072 529.169373,327.351898 529.169434,319.236755 
	C529.169556,307.750702 534.205872,300.996857 545.390320,297.937317 
	C549.015625,296.945618 552.802856,296.546204 556.395020,295.897705 
	C556.395020,289.482941 556.395020,283.378235 556.395020,276.068176 
	C550.622620,277.700287 545.424500,279.170044 539.557739,280.984406 
M1821.721924,335.582123 
	C1823.711914,335.759064 1825.750488,335.721405 1827.681519,336.158722 
	C1831.422485,337.005951 1834.737427,336.598358 1835.333252,332.279449 
	C1835.974365,327.631866 1832.456177,326.559052 1828.648804,326.122467 
	C1818.397461,324.946960 1808.146729,323.757141 1797.913330,322.437469 
	C1794.283813,321.969482 1791.411987,322.668182 1790.810913,326.669830 
	C1790.248413,330.415863 1792.537598,332.043121 1796.055786,332.449799 
	C1804.321411,333.405334 1812.576660,334.449463 1821.721924,335.582123 
M1710.740112,448.694672 
	C1709.396118,441.837799 1708.168091,434.955231 1706.657349,428.135315 
	C1705.940430,424.899475 1703.839722,422.505493 1700.221802,423.432495 
	C1697.009155,424.255676 1696.057373,426.858032 1696.702026,430.136414 
	C1698.820557,440.909393 1700.854492,451.698975 1702.917114,462.482910 
	C1703.562134,465.855652 1705.428955,468.260803 1709.005249,467.672333 
	C1713.011108,467.013153 1713.551880,463.781311 1712.943726,460.322784 
	C1712.309814,456.718445 1711.581177,453.130798 1710.740112,448.694672 
M1528.873901,299.879272 
	C1539.089478,301.030487 1549.322266,302.051971 1559.511597,303.401184 
	C1563.228516,303.893372 1566.580200,303.709595 1567.326416,299.575897 
	C1568.174072,294.879395 1564.509644,293.858673 1560.792358,293.420532 
	C1550.579712,292.216827 1540.345337,291.168732 1530.164673,289.739197 
	C1526.572510,289.234802 1523.671265,289.399963 1522.826782,293.394653 
	C1521.984619,297.378113 1524.504395,299.115448 1528.873901,299.879272 
M1655.976440,167.457443 
	C1655.645874,165.827240 1655.814209,163.773270 1654.871094,162.663315 
	C1653.346680,160.868759 1651.113403,158.552643 1649.140259,158.515167 
	C1645.831299,158.452332 1644.471802,161.406982 1645.087646,164.645157 
	C1647.231323,175.916901 1649.461304,187.172592 1651.736328,198.418655 
	C1652.387573,201.638016 1654.447632,203.623505 1657.801880,202.771240 
	C1660.966309,201.967194 1662.186523,199.524933 1661.525146,196.197769 
	C1659.677368,186.900635 1657.890625,177.591354 1655.976440,167.457443 
M1785.492310,248.012863 
	C1783.761719,248.993149 1782.007324,249.933975 1780.305664,250.962265 
	C1777.245972,252.811417 1775.470703,255.373520 1777.574463,258.795380 
	C1779.558594,262.022705 1782.474121,261.488159 1785.411499,259.855194 
	C1794.539551,254.780640 1803.683960,249.735123 1812.853394,244.735596 
	C1816.244507,242.886597 1818.967651,240.430313 1816.652344,236.482101 
	C1814.494629,232.802658 1811.082031,233.891541 1807.912354,235.659439 
	C1800.673950,239.696503 1793.395020,243.660965 1785.492310,248.012863 
M1771.935181,392.532471 
	C1771.333008,391.961548 1770.713745,391.407562 1770.131348,390.816986 
	C1767.567017,388.215698 1764.604614,386.443085 1761.528076,389.560242 
	C1758.150635,392.982361 1760.497803,395.883636 1763.228027,398.434692 
	C1770.745361,405.459198 1778.263672,412.482941 1785.792358,419.495239 
	C1788.281738,421.813904 1791.139771,423.541809 1794.052246,420.602020 
	C1797.099731,417.525848 1795.610107,414.675354 1792.802490,412.086487 
	C1785.970703,405.786316 1779.234375,399.382660 1771.935181,392.532471 
M1748.619629,174.525162 
	C1747.188110,172.973206 1745.546631,170.001648 1744.370483,170.175613 
	C1742.171143,170.500885 1739.359863,172.191208 1738.353516,174.121750 
	C1734.139038,182.206360 1730.486206,190.584457 1726.658447,198.869324 
	C1725.688110,200.969620 1724.094482,203.136047 1724.133789,205.246994 
	C1724.171509,207.273438 1725.529663,210.348053 1727.094971,210.965164 
	C1728.597656,211.557617 1732.251831,210.154724 1732.996826,208.653931 
	C1738.451294,197.665726 1743.411621,186.432175 1748.619629,174.525162 
M1595.508301,228.194946 
	C1587.745117,220.925903 1579.948242,213.692230 1572.237549,206.367889 
	C1569.661499,203.920914 1566.959595,202.414719 1564.080811,205.436905 
	C1561.321411,208.333923 1562.430786,211.192917 1565.079712,213.678009 
	C1572.957764,221.068741 1580.795410,228.503006 1588.714233,235.849670 
	C1591.082275,238.046707 1593.949463,239.368927 1596.627563,236.601715 
	C1599.125244,234.020920 1598.614258,231.173782 1595.508301,228.194946 
M1540.774170,385.978210 
	C1541.394043,391.720032 1544.195557,393.432068 1548.897827,390.849854 
	C1558.364014,385.651367 1567.765869,380.334503 1577.269165,375.205475 
	C1580.472778,373.476532 1582.574585,371.203918 1580.786499,367.661316 
	C1578.771362,363.668488 1575.471436,364.625763 1572.256226,366.407227 
	C1563.098999,371.481262 1553.885742,376.455688 1544.777588,381.615723 
	C1543.282959,382.462463 1542.208008,384.049988 1540.774170,385.978210 
M1789.868652,360.654816 
	C1788.414673,362.223999 1786.232422,363.602661 1785.755005,365.427307 
	C1785.420410,366.705841 1787.020630,369.350800 1788.431641,370.080719 
	C1795.469238,373.721436 1802.621582,377.211945 1810.000610,380.064117 
	C1811.556641,380.665619 1815.119019,378.894043 1816.097046,377.236450 
	C1816.812744,376.023743 1815.401489,372.065063 1813.918945,371.296631 
	C1806.317505,367.356171 1798.385864,364.052856 1789.868652,360.654816 
M1698.137451,194.543701 
	C1698.507324,193.995712 1699.123169,193.484009 1699.209961,192.894318 
	C1700.446045,184.508362 1701.875610,176.133270 1702.556763,167.698868 
	C1702.684692,166.114410 1699.895264,163.107895 1698.195312,162.904602 
	C1696.577881,162.711197 1693.373047,165.074173 1693.034302,166.751038 
	C1691.522095,174.238907 1690.556396,181.862198 1689.849854,189.478928 
	C1689.378052,194.565384 1692.171875,196.346176 1698.137451,194.543701 
M1541.667236,249.058701 
	C1542.697021,251.050674 1543.214233,253.953552 1544.847656,254.872833 
	C1551.066772,258.372650 1557.637207,261.250977 1564.094727,264.323120 
	C1567.260620,265.829315 1570.360107,266.219971 1572.136108,262.410675 
	C1573.927979,258.567596 1571.523804,256.520660 1568.384644,255.034363 
	C1562.224854,252.117767 1556.011963,249.309921 1549.901001,246.294769 
	C1546.506226,244.619797 1543.850708,244.880371 1541.667236,249.058701 
M1603.690430,184.449387 
	C1607.740967,192.200851 1611.580811,200.077438 1616.040649,207.585785 
	C1616.822754,208.902481 1620.522339,209.578125 1622.316528,208.951721 
	C1625.172241,207.954666 1625.699097,205.085571 1624.192505,202.281433 
	C1620.662476,195.710938 1617.241943,189.071686 1613.407593,182.681885 
	C1612.464478,181.110153 1609.921631,179.304062 1608.446045,179.555252 
	C1606.691284,179.854050 1605.294556,182.255676 1603.690430,184.449387 
M1740.949707,436.610413 
	C1742.327148,439.069672 1743.577148,441.612183 1745.115479,443.966370 
	C1746.903320,446.702393 1749.451660,447.715271 1752.343750,445.720947 
	C1754.925537,443.940552 1755.188477,441.475403 1753.660522,438.726074 
	C1750.114258,432.345123 1746.624146,425.932953 1743.122192,419.527496 
	C1741.452515,416.473419 1739.122437,414.940887 1735.803101,416.895569 
	C1732.538086,418.818237 1732.657959,421.596832 1734.364258,424.615814 
	C1736.487061,428.371490 1738.528687,432.172943 1740.949707,436.610413 
M1802.156006,284.594116 
	C1798.437866,285.360840 1794.321899,286.278046 1795.447266,291.269958 
	C1796.570312,296.251129 1800.779175,295.262970 1804.453857,294.568695 
	C1810.499390,293.426392 1816.545410,292.284668 1822.583008,291.100952 
	C1826.020264,290.427063 1828.781372,288.861267 1828.041016,284.799957 
	C1827.269775,280.569672 1823.917480,280.533417 1820.606079,281.102386 
	C1814.706055,282.116089 1808.829224,283.263763 1802.156006,284.594116 
M1773.635498,220.159912 
	C1776.920654,216.628586 1780.311768,213.188293 1783.452881,209.533112 
	C1785.465454,207.191345 1785.386230,204.554352 1782.987793,202.438919 
	C1780.596680,200.329956 1778.119019,200.580185 1775.925903,202.879807 
	C1770.645264,208.416519 1765.147461,213.778503 1760.303101,219.675797 
	C1759.110229,221.127869 1759.144775,225.019241 1760.273071,226.621628 
	C1762.098267,229.213776 1765.223877,228.829453 1767.614990,226.421402 
	C1769.489746,224.533279 1771.307129,222.588226 1773.635498,220.159912 
M1562.881714,334.781708 
	C1561.670532,331.305664 1559.217896,330.475830 1555.785034,331.173279 
	C1548.966553,332.558624 1542.127075,333.849976 1535.272217,335.041931 
	C1531.854492,335.636200 1529.547852,337.168304 1530.048584,340.913452 
	C1530.565063,344.777588 1533.417236,345.554321 1536.727051,344.969086 
	C1543.906982,343.699615 1551.141968,342.598480 1558.178345,340.755280 
	C1560.102417,340.251251 1561.401001,337.358643 1562.881714,334.781708 
z"/>
<path fill="#587553" opacity="1.000000" stroke="none" 
	d="
M694.000000,423.999847 
	C508.898956,423.999847 324.297882,423.999847 139.842102,423.999847 
	C137.908157,416.521759 138.288040,416.001251 145.237396,416.001221 
	C581.346313,415.999603 1017.455261,415.996857 1453.564209,416.085785 
	C1455.671143,416.086212 1459.000366,416.814667 1459.649780,418.195129 
	C1461.418579,421.955627 1459.650146,423.916656 1455.399536,423.993774 
	C1453.733765,424.023987 1452.066772,423.999756 1450.400391,423.999756 
	C1198.433594,423.999817 946.466797,423.999847 694.000000,423.999847 
z"/>
<path fill="#9FC3A0" opacity="1.000000" stroke="none" 
	d="
M1648.213379,236.225250 
	C1678.364014,220.333771 1711.539673,226.306519 1733.515625,245.415359 
	C1773.158569,279.886444 1765.854126,345.059967 1719.630859,370.066193 
	C1711.886353,374.255951 1704.053711,378.328979 1696.589966,382.982178 
	C1681.286133,392.523285 1671.152710,406.179260 1666.546021,421.888336 
	C1667.369141,425.724792 1668.912354,428.643768 1668.133911,430.671051 
	C1667.535278,432.229767 1663.979980,432.595062 1661.806396,433.631012 
	C1660.703003,434.156921 1659.540405,434.812225 1658.755249,435.714233 
	C1648.761353,447.195404 1636.265747,451.123047 1621.832275,446.771637 
	C1608.400757,442.722260 1600.573608,433.116089 1597.902832,419.276001 
	C1597.642334,417.925568 1596.457153,416.345062 1595.253052,415.666962 
	C1592.397339,414.058533 1588.766235,412.457458 1590.464355,408.802094 
	C1591.522461,406.524628 1595.090210,405.413147 1597.531616,403.778381 
	C1597.849976,404.165405 1598.168335,404.552429 1598.486694,404.939453 
	C1600.058838,401.310059 1601.630859,397.680664 1602.650879,395.325867 
	C1601.618530,391.807220 1599.839600,389.022278 1600.554443,387.234314 
	C1601.233398,385.536041 1604.579956,384.977295 1606.636353,383.725037 
	C1607.622803,383.124420 1608.541382,382.203674 1609.145508,381.216553 
	C1615.126709,371.443604 1615.019287,360.461121 1614.400269,349.709503 
	C1613.896973,340.967010 1612.297363,332.194122 1610.278076,323.648743 
	C1601.796265,287.756104 1615.806885,254.916367 1648.213379,236.225250 
M1630.570801,265.113007 
	C1619.524170,280.127869 1615.285034,296.955353 1619.162231,315.111420 
	C1623.003296,333.099091 1626.614868,350.941803 1623.976807,369.460388 
	C1623.814453,370.600311 1625.061279,372.627106 1626.170776,373.157776 
	C1639.818115,379.685455 1653.539185,386.061859 1667.326660,392.288300 
	C1668.379395,392.763763 1670.621094,392.300751 1671.394409,391.445709 
	C1682.292603,379.396576 1695.432007,370.600372 1710.023682,363.641571 
	C1732.638184,352.856567 1745.550415,335.079041 1748.720947,309.974609 
	C1753.473389,272.346558 1723.798584,237.529587 1685.924316,237.074081 
	C1662.986938,236.798218 1644.844482,246.461273 1630.570801,265.113007 
M1623.040649,436.798889 
	C1634.694702,440.359009 1646.320435,436.874786 1650.623657,428.503052 
	C1647.663330,426.117706 1641.184204,425.784851 1643.339233,420.154999 
	C1646.203979,412.670837 1651.763916,419.098633 1656.361206,419.050262 
	C1658.940308,413.493805 1661.489014,408.003021 1664.144897,402.281067 
	C1649.285156,395.353394 1634.885742,388.640350 1620.238647,381.811829 
	C1619.164917,384.201660 1618.297119,386.132904 1617.231201,388.505554 
	C1622.464111,390.981812 1627.369385,393.345154 1632.312256,395.626892 
	C1635.569336,397.130524 1637.764893,399.266022 1635.976318,403.016876 
	C1634.181274,406.781250 1631.080566,406.336365 1627.889648,404.842377 
	C1622.966553,402.537323 1618.029663,400.262054 1612.761841,397.817932 
	C1611.404297,400.901825 1610.251831,403.630493 1609.007446,406.316559 
	C1607.682861,409.175659 1608.441772,410.723145 1611.466431,411.969086 
	C1617.455200,414.435944 1623.418945,417.073547 1629.028931,420.278168 
	C1630.567261,421.156860 1631.926636,424.715973 1631.337646,426.281036 
	C1630.757935,427.821747 1627.660889,428.998657 1625.558350,429.202850 
	C1623.800415,429.373474 1621.867188,427.946899 1620.040894,427.159698 
	C1616.802490,425.763855 1613.586304,424.316559 1609.396973,422.464661 
	C1612.183716,429.734100 1616.510376,433.802124 1623.040649,436.798889 
z"/>
<path fill="#FCFCFC" opacity="1.000000" stroke="none" 
	d="
M191.000000,344.005859 
	C176.685913,344.005859 162.871826,344.005859 148.707932,344.005859 
	C148.707932,316.416840 148.707932,289.042114 148.707932,261.330017 
	C177.383301,261.330017 206.095886,261.330017 234.991394,261.330017 
	C234.991394,267.070282 234.991394,272.863556 234.991394,279.137146 
	C214.264252,279.137146 193.546005,279.137146 172.453781,279.137146 
	C172.453781,283.824768 172.453781,288.046997 172.453781,292.722046 
	C189.286301,292.722046 206.344238,292.722046 223.747955,292.722046 
	C223.747955,298.846680 223.747955,304.531311 223.747955,310.560516 
	C206.633087,310.560516 189.690414,310.560516 172.413345,310.560516 
	C172.413345,315.622375 172.413345,320.355255 172.413345,325.624268 
	C193.657791,325.624268 214.874176,325.624268 236.339142,325.624268 
	C236.339142,331.898468 236.339142,337.646149 236.339142,344.005859 
	C221.330963,344.005859 206.415482,344.005859 191.000000,344.005859 
z"/>
<path fill="#FBFCFC" opacity="1.000000" stroke="none" 
	d="
M1447.136719,351.084656 
	C1441.448364,361.040405 1432.696899,365.933960 1422.248535,368.426208 
	C1407.742188,371.886353 1386.384155,369.360962 1373.092896,362.325500 
	C1374.997925,357.368622 1376.929810,352.341797 1379.028687,346.880280 
	C1388.887939,352.011688 1399.207520,353.738556 1409.970093,352.985382 
	C1422.928223,352.078583 1428.823608,345.318695 1427.794800,331.947723 
	C1418.717529,341.350891 1407.645264,344.118103 1395.373657,342.652924 
	C1386.662842,341.612854 1379.027100,338.209717 1373.411011,331.138550 
	C1363.221436,318.309265 1364.621948,295.743652 1376.270020,284.780518 
	C1389.528442,272.301697 1412.595337,273.249664 1427.832886,287.303436 
	C1428.006470,284.429993 1428.157837,281.922516 1428.321289,279.215515 
	C1435.975830,279.215515 1443.426514,279.215515 1450.880615,279.209595 
	C1451.084351,279.458252 1451.460693,279.713226 1451.460205,279.967377 
	C1451.418091,298.623566 1451.614258,317.287109 1451.096924,335.930817 
	C1450.958862,340.902252 1448.628052,345.812836 1447.136719,351.084656 
M1423.883301,298.653137 
	C1416.727295,292.803101 1408.593140,291.779053 1399.950073,294.126434 
	C1393.292358,295.934540 1389.285034,301.431274 1389.004272,308.484253 
	C1388.690308,316.375519 1392.125610,322.341095 1398.885620,324.592804 
	C1407.398193,327.428345 1415.591919,326.654144 1422.952271,321.092865 
	C1430.003906,315.764893 1430.671265,305.589081 1423.883301,298.653137 
z"/>
<path fill="#FBFBFB" opacity="1.000000" stroke="none" 
	d="
M665.085754,290.978729 
	C669.450256,297.443024 670.657532,304.395508 670.929932,311.657623 
	C671.070435,315.403046 669.949219,316.879639 665.812622,316.816132 
	C649.327332,316.562866 632.835999,316.711761 616.346863,316.711792 
	C614.697021,316.711823 613.047180,316.711792 611.383362,316.711792 
	C611.694824,322.780762 615.297974,327.275208 622.001099,328.909546 
	C634.104553,331.860596 645.794434,331.145752 656.652283,323.076355 
	C660.525208,327.124542 664.387573,331.161652 668.385376,335.340393 
	C662.588989,340.632568 656.036316,343.621735 648.774963,345.204132 
	C635.829163,348.025177 622.966431,347.987030 610.423950,343.379181 
	C596.101562,338.117371 588.314819,326.744019 588.295410,311.670013 
	C588.275513,296.167297 596.392273,284.217224 610.855103,279.164673 
	C622.815491,274.986359 635.035461,274.804138 647.187927,278.377197 
	C654.382019,280.492401 660.457031,284.469238 665.085754,290.978729 
M640.410034,303.977936 
	C643.178894,303.977936 645.947815,303.977936 648.834045,303.977936 
	C646.438049,295.735535 639.665710,291.771088 629.509888,292.277740 
	C619.490784,292.777527 613.428284,296.752899 611.991943,303.980957 
	C621.169617,303.980957 630.300842,303.980957 640.410034,303.977936 
z"/>
<path fill="#FBFBFB" opacity="1.000000" stroke="none" 
	d="
M384.827881,308.501495 
	C386.109528,293.221771 394.790009,282.589172 409.558624,278.325836 
	C420.495392,275.168640 431.585907,275.016571 442.579742,278.105927 
	C458.830261,282.672455 468.093597,296.152039 467.097565,313.041595 
	C466.903931,316.324951 465.444153,316.764984 462.704681,316.751617 
	C446.051697,316.670349 429.398102,316.711243 412.744720,316.711304 
	C410.948792,316.711334 409.152863,316.711304 407.285248,316.711304 
	C408.734619,324.574738 413.939209,328.964386 422.796295,329.965607 
	C433.472931,331.172516 443.736237,330.335663 452.212402,323.488098 
	C456.487396,327.390411 460.517700,331.069397 464.770508,334.951477 
	C459.615875,340.358246 453.585815,343.040253 447.206238,344.706635 
	C435.597748,347.738770 423.850616,347.970703 412.130066,345.080017 
	C393.434967,340.469177 384.206085,328.246857 384.827881,308.501495 
M423.503479,304.015839 
	C430.607574,304.015839 437.711670,304.015839 444.913330,304.015839 
	C443.213104,296.325928 437.130371,292.394440 427.312683,292.239685 
	C417.025391,292.077515 410.065491,296.231750 408.092255,304.021484 
	C412.953247,304.021484 417.729340,304.021484 423.503479,304.015839 
z"/>
<path fill="#FCFCFC" opacity="1.000000" stroke="none" 
	d="
M1032.107544,277.054047 
	C1041.287598,277.232849 1050.291992,276.222565 1058.744019,277.936432 
	C1077.535034,281.746704 1087.535522,295.000702 1086.891724,312.961365 
	C1086.277222,330.104736 1074.624878,342.695892 1056.392700,345.924530 
	C1046.750122,347.632080 1037.158325,347.454407 1027.683960,344.912018 
	C1011.039185,340.445465 1001.102539,327.668243 1001.307556,311.156921 
	C1001.513062,294.606995 1011.256348,282.427094 1027.806274,278.042969 
	C1029.090942,277.702667 1030.389282,277.413788 1032.107544,277.054047 
M1048.868896,328.772827 
	C1049.509521,328.594635 1050.147339,328.404999 1050.791382,328.240021 
	C1059.960693,325.891083 1064.821655,320.005493 1064.750244,311.333344 
	C1064.678833,302.642670 1059.748901,296.530182 1050.558594,294.700378 
	C1046.730469,293.938171 1042.559448,293.799103 1038.716064,294.427155 
	C1028.962158,296.021027 1023.820007,302.188110 1023.790283,311.368652 
	C1023.760376,320.577576 1028.753296,326.522552 1038.584106,328.442474 
	C1041.635864,329.038452 1044.858154,328.761597 1048.868896,328.772827 
z"/>
<path fill="#FDFDFD" opacity="1.000000" stroke="none" 
	d="
M1319.507080,283.483826 
	C1324.846558,288.794189 1327.475708,295.108246 1327.638672,302.085480 
	C1327.960327,315.862885 1327.733643,329.653046 1327.733643,343.720886 
	C1320.237183,343.720886 1312.817627,343.720886 1304.734253,343.720886 
	C1304.734253,336.742188 1304.745850,329.666107 1304.730469,322.590088 
	C1304.718384,317.097260 1304.952881,311.585358 1304.578613,306.116028 
	C1303.958008,297.043915 1298.130371,292.477203 1289.070801,293.448853 
	C1282.954468,294.104919 1277.880371,296.777679 1274.308594,301.721863 
	C1272.963501,303.583893 1271.993408,306.166077 1271.947876,308.441925 
	C1271.715088,320.067871 1271.840332,331.700989 1271.840332,343.667053 
	C1264.037720,343.667053 1256.496826,343.667053 1248.728882,343.667053 
	C1248.728882,322.190308 1248.728882,300.784760 1248.728882,279.187439 
	C1256.396240,279.187439 1263.827148,279.187439 1271.653076,279.187439 
	C1271.653076,281.896118 1271.653076,284.482727 1271.653076,288.444031 
	C1278.349121,280.528320 1286.079834,276.893951 1295.079102,276.145172 
	C1303.997925,275.403107 1312.310425,277.059967 1319.507080,283.483826 
z"/>
<path fill="#FEFEFE" opacity="1.000000" stroke="none" 
	d="
M1205.042358,325.999084 
	C1205.042358,332.139587 1205.042358,337.780396 1205.042358,343.710693 
	C1197.392578,343.710693 1189.979004,343.710693 1182.050049,343.710693 
	C1182.050049,340.803009 1182.050049,337.767395 1182.050049,333.488434 
	C1173.937134,342.887634 1164.449707,346.266205 1153.474731,345.978760 
	C1137.352661,345.556519 1126.464111,335.222534 1125.983154,319.112518 
	C1125.590820,305.968384 1125.903442,292.803192 1125.903442,279.322571 
	C1133.434814,279.322571 1140.984741,279.322571 1148.960205,279.322571 
	C1148.960205,290.547943 1148.947388,301.663605 1148.963501,312.779175 
	C1148.983154,326.278656 1157.973389,332.225647 1170.601562,327.111969 
	C1178.325562,323.984222 1181.895996,318.705170 1181.895996,310.412964 
	C1181.895996,300.116150 1181.896118,289.819336 1181.896118,279.261292 
	C1189.610718,279.261292 1197.026611,279.261292 1205.042358,279.261292 
	C1205.042358,294.657745 1205.042358,310.078583 1205.042358,325.999084 
z"/>
<path fill="#FDFDFD" opacity="1.000000" stroke="none" 
	d="
M950.409912,306.450439 
	C944.647827,312.510071 942.877441,319.355011 943.646973,327.265320 
	C944.159485,332.533905 943.744202,337.892792 943.744202,343.607361 
	C935.831055,343.607361 928.101807,343.607361 919.651001,343.607361 
	C919.651001,336.255646 919.928345,328.665314 919.517029,321.112488 
	C919.348267,318.014099 918.349365,314.545593 916.608887,312.015320 
	C905.022278,295.170380 893.132751,278.533844 880.766479,261.014740 
	C889.860535,261.014740 898.232300,260.911621 906.594604,261.144928 
	C907.641968,261.174164 908.848206,262.837708 909.627869,263.984039 
	C916.920776,274.705719 924.136780,285.479706 931.718384,296.749084 
	C938.513245,286.624390 945.353516,277.020355 951.511047,266.996948 
	C954.381653,262.324127 957.552673,260.404175 963.035339,260.874969 
	C969.146179,261.399658 975.336731,260.995209 982.441406,260.995209 
	C971.588135,276.406219 961.109253,291.285583 950.409912,306.450439 
z"/>
<path fill="#FDFDFD" opacity="1.000000" stroke="none" 
	d="
M741.962891,295.347321 
	C738.641235,294.897278 737.713135,296.051727 737.804199,298.906525 
	C738.000549,305.062042 737.804993,311.228882 737.884338,317.389618 
	C737.968689,323.932098 741.131409,327.367767 747.705261,327.255188 
	C751.611084,327.188263 755.497986,326.022736 759.859131,325.270844 
	C760.996582,329.619965 762.244141,334.390228 763.463379,339.052155 
	C753.780029,347.251129 733.924561,348.275574 723.868286,341.253815 
	C718.158752,337.267120 715.104431,331.686737 714.820801,324.838287 
	C714.497131,317.023926 714.637329,309.190308 714.581665,301.364990 
	C714.568970,299.575409 714.579834,297.785614 714.579834,295.471985 
	C710.506531,295.471985 706.921997,295.471985 703.172729,295.471985 
	C703.172729,289.830566 703.172729,284.718048 703.172729,279.162354 
	C706.773010,279.162354 710.357117,279.162354 714.400879,279.162354 
	C714.400879,274.021301 714.400879,269.287170 714.400879,264.212341 
	C722.380371,264.212341 729.895630,264.212341 737.848999,264.212341 
	C737.848999,269.094208 737.848999,273.841034 737.848999,278.985107 
	C746.352173,278.985107 754.434509,278.985107 762.732666,278.985107 
	C762.732666,284.496338 762.732666,289.599548 762.732666,295.347046 
	C755.992493,295.347046 749.229919,295.347046 741.962891,295.347321 
z"/>
<path fill="#FDFDFD" opacity="1.000000" stroke="none" 
	d="
M829.817749,265.294708 
	C829.854309,269.933868 829.854309,274.096375 829.854309,278.846771 
	C838.145020,278.846771 846.350891,278.846771 854.749817,278.846771 
	C854.749817,284.537476 854.749817,289.645020 854.749817,295.170898 
	C846.636414,295.170898 838.533630,295.170898 829.982300,295.170898 
	C829.982300,303.695984 829.725159,311.826904 830.084961,319.930450 
	C830.280457,324.332733 833.571899,326.947235 837.776550,327.015808 
	C842.323303,327.089935 846.886536,326.148376 851.948669,325.594452 
	C853.009338,329.655151 854.256897,334.431213 855.473328,339.088043 
	C845.846008,346.983154 826.650635,348.256195 816.632385,341.791260 
	C810.463440,337.810242 807.113159,332.029510 806.813232,324.770508 
	C806.490356,316.954742 806.635193,309.119568 806.581543,301.292816 
	C806.569336,299.508698 806.579834,297.724457 806.579834,295.428864 
	C802.447388,295.428864 798.859680,295.428864 795.138672,295.428864 
	C795.138672,289.789764 795.138672,284.669281 795.138672,279.116394 
	C798.835632,279.116394 802.426697,279.116394 806.454163,279.116394 
	C806.454163,273.967346 806.454163,269.224030 806.454163,263.441345 
	C814.555786,263.919495 822.168457,264.368774 829.817749,265.294708 
z"/>
<path fill="#FDFDFD" opacity="1.000000" stroke="none" 
	d="
M322.434326,344.002319 
	C319.658051,344.004608 317.324677,344.039124 314.992615,343.997711 
	C310.175751,343.912262 304.428040,345.359039 300.814636,343.218719 
	C297.443634,341.221924 296.300873,335.415100 294.247345,331.250824 
	C286.529816,315.600739 278.835083,299.939423 271.150269,284.273254 
	C270.371460,282.685486 269.717438,281.036499 268.820984,278.995941 
	C276.469635,278.995941 283.611084,278.808289 290.725983,279.158875 
	C292.101074,279.226654 293.914795,281.147766 294.606659,282.640198 
	C300.613800,295.598663 306.410980,308.654480 312.662842,322.553253 
	C316.221985,314.765381 319.502197,307.629456 322.746490,300.477234 
	C325.965271,293.381195 329.147888,286.268738 332.365417,279.121216 
	C340.179810,279.121216 347.830750,279.121216 356.014008,279.121216 
	C355.534271,280.424713 355.218140,281.595520 354.693207,282.663727 
	C345.239288,301.902191 335.787598,321.141968 326.230469,340.329163 
	C325.519958,341.755585 324.013977,342.785767 322.434326,344.002319 
z"/>
<path fill="#FDFDFD" opacity="1.000000" stroke="none" 
	d="
M539.892090,280.812073 
	C545.424500,279.170044 550.622620,277.700287 556.395020,276.068176 
	C556.395020,283.378235 556.395020,289.482941 556.395020,295.897705 
	C552.802856,296.546204 549.015625,296.945618 545.390320,297.937317 
	C534.205872,300.996857 529.169556,307.750702 529.169434,319.236755 
	C529.169373,327.351898 529.169434,335.467072 529.169434,343.789520 
	C521.331360,343.789520 513.914001,343.789520 506.245850,343.789520 
	C506.245850,322.279327 506.245850,300.884735 506.245850,279.242859 
	C513.744263,279.242859 521.159729,279.242859 529.120728,279.242859 
	C529.120728,282.430542 529.120728,285.631744 529.120728,289.148651 
	C532.939697,286.161285 536.248718,283.572845 539.892090,280.812073 
z"/>
<path fill="#9EC2A0" opacity="1.000000" stroke="none" 
	d="
M1821.279053,335.519928 
	C1812.576660,334.449463 1804.321411,333.405334 1796.055786,332.449799 
	C1792.537598,332.043121 1790.248413,330.415863 1790.810913,326.669830 
	C1791.411987,322.668182 1794.283813,321.969482 1797.913330,322.437469 
	C1808.146729,323.757141 1818.397461,324.946960 1828.648804,326.122467 
	C1832.456177,326.559052 1835.974365,327.631866 1835.333252,332.279449 
	C1834.737427,336.598358 1831.422485,337.005951 1827.681519,336.158722 
	C1825.750488,335.721405 1823.711914,335.759064 1821.279053,335.519928 
z"/>
<path fill="#9EC29F" opacity="1.000000" stroke="none" 
	d="
M1710.816895,449.115265 
	C1711.581177,453.130798 1712.309814,456.718445 1712.943726,460.322784 
	C1713.551880,463.781311 1713.011108,467.013153 1709.005249,467.672333 
	C1705.428955,468.260803 1703.562134,465.855652 1702.917114,462.482910 
	C1700.854492,451.698975 1698.820557,440.909393 1696.702026,430.136414 
	C1696.057373,426.858032 1697.009155,424.255676 1700.221802,423.432495 
	C1703.839722,422.505493 1705.940430,424.899475 1706.657349,428.135315 
	C1708.168091,434.955231 1709.396118,441.837799 1710.816895,449.115265 
z"/>
<path fill="#9EC2A0" opacity="1.000000" stroke="none" 
	d="
M1528.467773,299.812744 
	C1524.504395,299.115448 1521.984619,297.378113 1522.826782,293.394653 
	C1523.671265,289.399963 1526.572510,289.234802 1530.164673,289.739197 
	C1540.345337,291.168732 1550.579712,292.216827 1560.792358,293.420532 
	C1564.509644,293.858673 1568.174072,294.879395 1567.326416,299.575897 
	C1566.580200,303.709595 1563.228516,303.893372 1559.511597,303.401184 
	C1549.322266,302.051971 1539.089478,301.030487 1528.467773,299.812744 
z"/>
<path fill="#9EC29F" opacity="1.000000" stroke="none" 
	d="
M1656.028076,167.872162 
	C1657.890625,177.591354 1659.677368,186.900635 1661.525146,196.197769 
	C1662.186523,199.524933 1660.966309,201.967194 1657.801880,202.771240 
	C1654.447632,203.623505 1652.387573,201.638016 1651.736328,198.418655 
	C1649.461304,187.172592 1647.231323,175.916901 1645.087646,164.645157 
	C1644.471802,161.406982 1645.831299,158.452332 1649.140259,158.515167 
	C1651.113403,158.552643 1653.346680,160.868759 1654.871094,162.663315 
	C1655.814209,163.773270 1655.645874,165.827240 1656.028076,167.872162 
z"/>
<path fill="#9FC3A0" opacity="1.000000" stroke="none" 
	d="
M1785.812500,247.833908 
	C1793.395020,243.660965 1800.673950,239.696503 1807.912354,235.659439 
	C1811.082031,233.891541 1814.494629,232.802658 1816.652344,236.482101 
	C1818.967651,240.430313 1816.244507,242.886597 1812.853394,244.735596 
	C1803.683960,249.735123 1794.539551,254.780640 1785.411499,259.855194 
	C1782.474121,261.488159 1779.558594,262.022705 1777.574463,258.795380 
	C1775.470703,255.373520 1777.245972,252.811417 1780.305664,250.962265 
	C1782.007324,249.933975 1783.761719,248.993149 1785.812500,247.833908 
z"/>
<path fill="#9FC3A0" opacity="1.000000" stroke="none" 
	d="
M1772.197266,392.776611 
	C1779.234375,399.382660 1785.970703,405.786316 1792.802490,412.086487 
	C1795.610107,414.675354 1797.099731,417.525848 1794.052246,420.602020 
	C1791.139771,423.541809 1788.281738,421.813904 1785.792358,419.495239 
	C1778.263672,412.482941 1770.745361,405.459198 1763.228027,398.434692 
	C1760.497803,395.883636 1758.150635,392.982361 1761.528076,389.560242 
	C1764.604614,386.443085 1767.567017,388.215698 1770.131348,390.816986 
	C1770.713745,391.407562 1771.333008,391.961548 1772.197266,392.776611 
z"/>
<path fill="#9EC3A0" opacity="1.000000" stroke="none" 
	d="
M1748.573730,174.900604 
	C1743.411621,186.432175 1738.451294,197.665726 1732.996826,208.653931 
	C1732.251831,210.154724 1728.597656,211.557617 1727.094971,210.965164 
	C1725.529663,210.348053 1724.171509,207.273438 1724.133789,205.246994 
	C1724.094482,203.136047 1725.688110,200.969620 1726.658447,198.869324 
	C1730.486206,190.584457 1734.139038,182.206360 1738.353516,174.121750 
	C1739.359863,172.191208 1742.171143,170.500885 1744.370483,170.175613 
	C1745.546631,170.001648 1747.188110,172.973206 1748.573730,174.900604 
z"/>
<path fill="#9FC3A0" opacity="1.000000" stroke="none" 
	d="
M1595.769775,228.459595 
	C1598.614258,231.173782 1599.125244,234.020920 1596.627563,236.601715 
	C1593.949463,239.368927 1591.082275,238.046707 1588.714233,235.849670 
	C1580.795410,228.503006 1572.957764,221.068741 1565.079712,213.678009 
	C1562.430786,211.192917 1561.321411,208.333923 1564.080811,205.436905 
	C1566.959595,202.414719 1569.661499,203.920914 1572.237549,206.367889 
	C1579.948242,213.692230 1587.745117,220.925903 1595.769775,228.459595 
z"/>
<path fill="#9EC2A0" opacity="1.000000" stroke="none" 
	d="
M1540.856567,385.636688 
	C1542.208008,384.049988 1543.282959,382.462463 1544.777588,381.615723 
	C1553.885742,376.455688 1563.098999,371.481262 1572.256226,366.407227 
	C1575.471436,364.625763 1578.771362,363.668488 1580.786499,367.661316 
	C1582.574585,371.203918 1580.472778,373.476532 1577.269165,375.205475 
	C1567.765869,380.334503 1558.364014,385.651367 1548.897827,390.849854 
	C1544.195557,393.432068 1541.394043,391.720032 1540.856567,385.636688 
z"/>
<path fill="#9EC2A0" opacity="1.000000" stroke="none" 
	d="
M1790.219116,360.590881 
	C1798.385864,364.052856 1806.317505,367.356171 1813.918945,371.296631 
	C1815.401489,372.065063 1816.812744,376.023743 1816.097046,377.236450 
	C1815.119019,378.894043 1811.556641,380.665619 1810.000610,380.064117 
	C1802.621582,377.211945 1795.469238,373.721436 1788.431641,370.080719 
	C1787.020630,369.350800 1785.420410,366.705841 1785.755005,365.427307 
	C1786.232422,363.602661 1788.414673,362.223999 1790.219116,360.590881 
z"/>
<path fill="#9EC29F" opacity="1.000000" stroke="none" 
	d="
M1697.828125,194.773163 
	C1692.171875,196.346176 1689.378052,194.565384 1689.849854,189.478928 
	C1690.556396,181.862198 1691.522095,174.238907 1693.034302,166.751038 
	C1693.373047,165.074173 1696.577881,162.711197 1698.195312,162.904602 
	C1699.895264,163.107895 1702.684692,166.114410 1702.556763,167.698868 
	C1701.875610,176.133270 1700.446045,184.508362 1699.209961,192.894318 
	C1699.123169,193.484009 1698.507324,193.995712 1697.828125,194.773163 
z"/>
<path fill="#9DC19F" opacity="1.000000" stroke="none" 
	d="
M1541.787598,248.711456 
	C1543.850708,244.880371 1546.506226,244.619797 1549.901001,246.294769 
	C1556.011963,249.309921 1562.224854,252.117767 1568.384644,255.034363 
	C1571.523804,256.520660 1573.927979,258.567596 1572.136108,262.410675 
	C1570.360107,266.219971 1567.260620,265.829315 1564.094727,264.323120 
	C1557.637207,261.250977 1551.066772,258.372650 1544.847656,254.872833 
	C1543.214233,253.953552 1542.697021,251.050674 1541.787598,248.711456 
z"/>
<path fill="#9EC3A0" opacity="1.000000" stroke="none" 
	d="
M1603.716553,184.097763 
	C1605.294556,182.255676 1606.691284,179.854050 1608.446045,179.555252 
	C1609.921631,179.304062 1612.464478,181.110153 1613.407593,182.681885 
	C1617.241943,189.071686 1620.662476,195.710938 1624.192505,202.281433 
	C1625.699097,205.085571 1625.172241,207.954666 1622.316528,208.951721 
	C1620.522339,209.578125 1616.822754,208.902481 1616.040649,207.585785 
	C1611.580811,200.077438 1607.740967,192.200851 1603.716553,184.097763 
z"/>
<path fill="#9DC19F" opacity="1.000000" stroke="none" 
	d="
M1740.777466,436.282532 
	C1738.528687,432.172943 1736.487061,428.371490 1734.364258,424.615814 
	C1732.657959,421.596832 1732.538086,418.818237 1735.803101,416.895569 
	C1739.122437,414.940887 1741.452515,416.473419 1743.122192,419.527496 
	C1746.624146,425.932953 1750.114258,432.345123 1753.660522,438.726074 
	C1755.188477,441.475403 1754.925537,443.940552 1752.343750,445.720947 
	C1749.451660,447.715271 1746.903320,446.702393 1745.115479,443.966370 
	C1743.577148,441.612183 1742.327148,439.069672 1740.777466,436.282532 
z"/>
<path fill="#9EC3A0" opacity="1.000000" stroke="none" 
	d="
M1802.549316,284.474762 
	C1808.829224,283.263763 1814.706055,282.116089 1820.606079,281.102386 
	C1823.917480,280.533417 1827.269775,280.569672 1828.041016,284.799957 
	C1828.781372,288.861267 1826.020264,290.427063 1822.583008,291.100952 
	C1816.545410,292.284668 1810.499390,293.426392 1804.453857,294.568695 
	C1800.779175,295.262970 1796.570312,296.251129 1795.447266,291.269958 
	C1794.321899,286.278046 1798.437866,285.360840 1802.549316,284.474762 
z"/>
<path fill="#9FC4A0" opacity="1.000000" stroke="none" 
	d="
M1773.392700,220.414215 
	C1771.307129,222.588226 1769.489746,224.533279 1767.614990,226.421402 
	C1765.223877,228.829453 1762.098267,229.213776 1760.273071,226.621628 
	C1759.144775,225.019241 1759.110229,221.127869 1760.303101,219.675797 
	C1765.147461,213.778503 1770.645264,208.416519 1775.925903,202.879807 
	C1778.119019,200.580185 1780.596680,200.329956 1782.987793,202.438919 
	C1785.386230,204.554352 1785.465454,207.191345 1783.452881,209.533112 
	C1780.311768,213.188293 1776.920654,216.628586 1773.392700,220.414215 
z"/>
<path fill="#9EC2A0" opacity="1.000000" stroke="none" 
	d="
M1562.934204,335.171936 
	C1561.401001,337.358643 1560.102417,340.251251 1558.178345,340.755280 
	C1551.141968,342.598480 1543.906982,343.699615 1536.727051,344.969086 
	C1533.417236,345.554321 1530.565063,344.777588 1530.048584,340.913452 
	C1529.547852,337.168304 1531.854492,335.636200 1535.272217,335.041931 
	C1542.127075,333.849976 1548.966553,332.558624 1555.785034,331.173279 
	C1559.217896,330.475830 1561.670532,331.305664 1562.934204,335.171936 
z"/>
<path fill="#1F242C" opacity="1.000000" stroke="none" 
	d="
M1630.783203,264.825439 
	C1644.844482,246.461273 1662.986938,236.798218 1685.924316,237.074081 
	C1723.798584,237.529587 1753.473389,272.346558 1748.720947,309.974609 
	C1745.550415,335.079041 1732.638184,352.856567 1710.023682,363.641571 
	C1695.432007,370.600372 1682.292603,379.396576 1671.394409,391.445709 
	C1670.621094,392.300751 1668.379395,392.763763 1667.326660,392.288300 
	C1653.539185,386.061859 1639.818115,379.685455 1626.170776,373.157776 
	C1625.061279,372.627106 1623.814453,370.600311 1623.976807,369.460388 
	C1626.614868,350.941803 1623.003296,333.099091 1619.162231,315.111420 
	C1615.285034,296.955353 1619.524170,280.127869 1630.783203,264.825439 
M1686.980469,267.000824 
	C1685.805176,267.892090 1684.488770,268.647125 1683.477173,269.696228 
	C1675.547363,277.919098 1676.966553,278.255798 1667.627319,271.128937 
	C1664.508667,268.749054 1661.817017,268.514130 1658.662109,270.972290 
	C1655.518799,273.421265 1652.146851,275.580688 1648.839233,277.813965 
	C1642.376831,282.177429 1642.160889,282.721863 1644.347412,290.063293 
	C1646.673218,297.872620 1646.673218,297.872620 1638.976807,301.215424 
	C1632.137207,304.186066 1632.028564,304.420349 1632.745361,312.108276 
	C1633.023438,315.089508 1633.052612,318.095062 1633.365356,321.071686 
	C1634.247925,329.469940 1634.486816,329.703949 1642.472046,331.701477 
	C1649.635742,333.493500 1649.638550,333.493744 1648.994873,340.600067 
	C1648.889893,341.759521 1648.820312,342.929016 1648.608521,344.070557 
	C1647.928101,347.737793 1649.450806,350.167938 1652.720947,351.693115 
	C1656.334717,353.378387 1659.953125,355.054749 1663.541504,356.792877 
	C1670.699829,360.260345 1671.268677,360.170990 1676.799561,354.355408 
	C1682.290405,348.581940 1682.300049,348.579651 1688.527222,353.239563 
	C1689.593018,354.037018 1690.550415,355.313568 1691.725708,355.556519 
	C1693.797607,355.984741 1696.468994,356.608337 1698.058350,355.698456 
	C1702.947388,352.899719 1707.418213,349.377380 1712.100952,346.209259 
	C1714.826904,344.364899 1715.647583,341.956360 1714.673096,338.866608 
	C1714.173462,337.282593 1713.801514,335.644531 1713.154663,334.123291 
	C1711.217285,329.567596 1712.784546,326.860443 1717.381104,325.532532 
	C1718.651123,325.165649 1719.839844,324.525604 1721.081543,324.051880 
	C1724.682251,322.678131 1726.221558,320.172974 1725.745239,316.273254 
	C1725.281982,312.478821 1725.106445,308.649963 1724.765991,304.839661 
	C1724.016357,296.449036 1723.869629,296.290344 1715.723022,294.295410 
	C1708.471191,292.519592 1708.283081,292.262573 1709.139648,284.896606 
	C1709.293213,283.576172 1709.915771,282.195587 1709.673828,280.970612 
	C1709.311768,279.136444 1708.865356,276.448883 1707.601685,275.808960 
	C1701.133911,272.533600 1694.392456,269.798523 1686.980469,267.000824 
z"/>
<path fill="#21252D" opacity="1.000000" stroke="none" 
	d="
M1622.685547,436.627411 
	C1616.510376,433.802124 1612.183716,429.734100 1609.396973,422.464661 
	C1613.586304,424.316559 1616.802490,425.763855 1620.040894,427.159698 
	C1621.867188,427.946899 1623.800415,429.373474 1625.558350,429.202850 
	C1627.660889,428.998657 1630.757935,427.821747 1631.337646,426.281036 
	C1631.926636,424.715973 1630.567261,421.156860 1629.028931,420.278168 
	C1623.418945,417.073547 1617.455200,414.435944 1611.466431,411.969086 
	C1608.441772,410.723145 1607.682861,409.175659 1609.007446,406.316559 
	C1610.251831,403.630493 1611.404297,400.901825 1612.761841,397.817932 
	C1618.029663,400.262054 1622.966553,402.537323 1627.889648,404.842377 
	C1631.080566,406.336365 1634.181274,406.781250 1635.976318,403.016876 
	C1637.764893,399.266022 1635.569336,397.130524 1632.312256,395.626892 
	C1627.369385,393.345154 1622.464111,390.981812 1617.231201,388.505554 
	C1618.297119,386.132904 1619.164917,384.201660 1620.238647,381.811829 
	C1634.885742,388.640350 1649.285156,395.353394 1664.144897,402.281067 
	C1661.489014,408.003021 1658.940308,413.493805 1656.361206,419.050262 
	C1651.763916,419.098633 1646.203979,412.670837 1643.339233,420.154999 
	C1641.184204,425.784851 1647.663330,426.117706 1650.623657,428.503052 
	C1646.320435,436.874786 1634.694702,440.359009 1622.685547,436.627411 
z"/>
<path fill="#20242D" opacity="1.000000" stroke="none" 
	d="
M1424.172363,298.894531 
	C1430.671265,305.589081 1430.003906,315.764893 1422.952271,321.092865 
	C1415.591919,326.654144 1407.398193,327.428345 1398.885620,324.592804 
	C1392.125610,322.341095 1388.690308,316.375519 1389.004272,308.484253 
	C1389.285034,301.431274 1393.292358,295.934540 1399.950073,294.126434 
	C1408.593140,291.779053 1416.727295,292.803101 1424.172363,298.894531 
z"/>
<path fill="#242830" opacity="1.000000" stroke="none" 
	d="
M639.921021,303.979431 
	C630.300842,303.980957 621.169617,303.980957 611.991943,303.980957 
	C613.428284,296.752899 619.490784,292.777527 629.509888,292.277740 
	C639.665710,291.771088 646.438049,295.735535 648.834045,303.977936 
	C645.947815,303.977936 643.178894,303.977936 639.921021,303.979431 
z"/>
<path fill="#242830" opacity="1.000000" stroke="none" 
	d="
M423.004456,304.018677 
	C417.729340,304.021484 412.953247,304.021484 408.092255,304.021484 
	C410.065491,296.231750 417.025391,292.077515 427.312683,292.239685 
	C437.130371,292.394440 443.213104,296.325928 444.913330,304.015839 
	C437.711670,304.015839 430.607574,304.015839 423.004456,304.018677 
z"/>
<path fill="#21252E" opacity="1.000000" stroke="none" 
	d="
M1048.435547,328.828583 
	C1044.858154,328.761597 1041.635864,329.038452 1038.584106,328.442474 
	C1028.753296,326.522552 1023.760376,320.577576 1023.790283,311.368652 
	C1023.820007,302.188110 1028.962158,296.021027 1038.716064,294.427155 
	C1042.559448,293.799103 1046.730469,293.938171 1050.558594,294.700378 
	C1059.748901,296.530182 1064.678833,302.642670 1064.750244,311.333344 
	C1064.821655,320.005493 1059.960693,325.891083 1050.791382,328.240021 
	C1050.147339,328.404999 1049.509521,328.594635 1048.435547,328.828583 
z"/>
<path fill="#9FC3A0" opacity="1.000000" stroke="none" 
	d="
M1687.363525,266.937683 
	C1694.392456,269.798523 1701.133911,272.533600 1707.601685,275.808960 
	C1708.865356,276.448883 1709.311768,279.136444 1709.673828,280.970612 
	C1709.915771,282.195587 1709.293213,283.576172 1709.139648,284.896606 
	C1708.283081,292.262573 1708.471191,292.519592 1715.723022,294.295410 
	C1723.869629,296.290344 1724.016357,296.449036 1724.765991,304.839661 
	C1725.106445,308.649963 1725.281982,312.478821 1725.745239,316.273254 
	C1726.221558,320.172974 1724.682251,322.678131 1721.081543,324.051880 
	C1719.839844,324.525604 1718.651123,325.165649 1717.381104,325.532532 
	C1712.784546,326.860443 1711.217285,329.567596 1713.154663,334.123291 
	C1713.801514,335.644531 1714.173462,337.282593 1714.673096,338.866608 
	C1715.647583,341.956360 1714.826904,344.364899 1712.100952,346.209259 
	C1707.418213,349.377380 1702.947388,352.899719 1698.058350,355.698456 
	C1696.468994,356.608337 1693.797607,355.984741 1691.725708,355.556519 
	C1690.550415,355.313568 1689.593018,354.037018 1688.527222,353.239563 
	C1682.300049,348.579651 1682.290405,348.581940 1676.799561,354.355408 
	C1671.268677,360.170990 1670.699829,360.260345 1663.541504,356.792877 
	C1659.953125,355.054749 1656.334717,353.378387 1652.720947,351.693115 
	C1649.450806,350.167938 1647.928101,347.737793 1648.608521,344.070557 
	C1648.820312,342.929016 1648.889893,341.759521 1648.994873,340.600067 
	C1649.638550,333.493744 1649.635742,333.493500 1642.472046,331.701477 
	C1634.486816,329.703949 1634.247925,329.469940 1633.365356,321.071686 
	C1633.052612,318.095062 1633.023438,315.089508 1632.745361,312.108276 
	C1632.028564,304.420349 1632.137207,304.186066 1638.976807,301.215424 
	C1646.673218,297.872620 1646.673218,297.872620 1644.347412,290.063293 
	C1642.160889,282.721863 1642.376831,282.177429 1648.839233,277.813965 
	C1652.146851,275.580688 1655.518799,273.421265 1658.662109,270.972290 
	C1661.817017,268.514130 1664.508667,268.749054 1667.627319,271.128937 
	C1676.966553,278.255798 1675.547363,277.919098 1683.477173,269.696228 
	C1684.488770,268.647125 1685.805176,267.892090 1687.363525,266.937683 
M1677.293213,340.215210 
	C1682.549805,339.522522 1687.840942,338.283203 1692.031006,343.238953 
	C1695.093750,346.861359 1697.599609,343.730774 1700.123779,342.165741 
	C1702.559204,340.655792 1704.464233,339.357513 1703.236084,335.535736 
	C1700.175415,326.011902 1702.494995,320.793701 1711.760010,316.968475 
	C1716.725098,314.918518 1714.608887,311.441925 1714.885376,308.309448 
	C1715.156372,305.239105 1713.559937,304.077362 1710.694092,303.346375 
	C1700.776611,300.816620 1697.707886,296.674225 1699.017944,286.737579 
	C1699.613770,282.218994 1696.697021,281.543365 1693.975342,280.107666 
	C1691.147827,278.616119 1688.947998,278.031128 1686.259766,281.057617 
	C1679.905640,288.211090 1673.671509,288.716980 1666.097046,282.496277 
	C1662.036011,279.160889 1660.246582,282.709229 1657.539551,283.999451 
	C1654.724243,285.341278 1653.913330,287.025208 1654.896606,290.298004 
	C1657.888184,300.256409 1655.791260,304.331696 1646.265015,309.073853 
	C1644.965332,309.720825 1643.312988,310.970764 1643.062744,312.194916 
	C1641.721191,318.752472 1643.539795,321.338135 1650.092285,323.037567 
	C1656.298950,324.647308 1660.870483,331.097687 1659.539062,337.301147 
	C1658.621582,341.575348 1659.505859,343.694458 1663.674316,345.700500 
	C1667.790894,347.681488 1670.278809,347.415771 1672.838623,343.805664 
	C1673.762695,342.502380 1675.325562,341.652039 1677.293213,340.215210 
z"/>
<path fill="#20252D" opacity="1.000000" stroke="none" 
	d="
M1676.945068,340.405090 
	C1675.325562,341.652039 1673.762695,342.502380 1672.838623,343.805664 
	C1670.278809,347.415771 1667.790894,347.681488 1663.674316,345.700500 
	C1659.505859,343.694458 1658.621582,341.575348 1659.539062,337.301147 
	C1660.870483,331.097687 1656.298950,324.647308 1650.092285,323.037567 
	C1643.539795,321.338135 1641.721191,318.752472 1643.062744,312.194916 
	C1643.312988,310.970764 1644.965332,309.720825 1646.265015,309.073853 
	C1655.791260,304.331696 1657.888184,300.256409 1654.896606,290.298004 
	C1653.913330,287.025208 1654.724243,285.341278 1657.539551,283.999451 
	C1660.246582,282.709229 1662.036011,279.160889 1666.097046,282.496277 
	C1673.671509,288.716980 1679.905640,288.211090 1686.259766,281.057617 
	C1688.947998,278.031128 1691.147827,278.616119 1693.975342,280.107666 
	C1696.697021,281.543365 1699.613770,282.218994 1699.017944,286.737579 
	C1697.707886,296.674225 1700.776611,300.816620 1710.694092,303.346375 
	C1713.559937,304.077362 1715.156372,305.239105 1714.885376,308.309448 
	C1714.608887,311.441925 1716.725098,314.918518 1711.760010,316.968475 
	C1702.494995,320.793701 1700.175415,326.011902 1703.236084,335.535736 
	C1704.464233,339.357513 1702.559204,340.655792 1700.123779,342.165741 
	C1697.599609,343.730774 1695.093750,346.861359 1692.031006,343.238953 
	C1687.840942,338.283203 1682.549805,339.522522 1676.945068,340.405090 
M1691.118530,301.376068 
	C1684.554932,295.715179 1677.723877,294.713989 1670.894531,298.411774 
	C1665.137207,301.529144 1661.471558,308.866394 1662.475830,315.262299 
	C1663.616821,322.528625 1668.918091,328.136475 1675.999756,329.568359 
	C1682.179932,330.817993 1689.682739,327.475098 1693.267456,321.874725 
	C1697.240356,315.668152 1696.670898,308.710571 1691.118530,301.376068 
z"/>
<path fill="#9FC3A0" opacity="1.000000" stroke="none" 
	d="
M1691.376099,301.642395 
	C1696.670898,308.710571 1697.240356,315.668152 1693.267456,321.874725 
	C1689.682739,327.475098 1682.179932,330.817993 1675.999756,329.568359 
	C1668.918091,328.136475 1663.616821,322.528625 1662.475830,315.262299 
	C1661.471558,308.866394 1665.137207,301.529144 1670.894531,298.411774 
	C1677.723877,294.713989 1684.554932,295.715179 1691.376099,301.642395 
M1685.678833,314.116333 
	C1686.065308,310.210968 1684.324829,307.306854 1680.589600,306.764954 
	C1678.522583,306.465088 1675.639893,307.480652 1674.080566,308.930908 
	C1671.262573,311.552063 1672.191650,316.434692 1675.303467,318.513245 
	C1678.902100,320.916931 1682.716553,319.531799 1685.678833,314.116333 
z"/>
<path fill="#252B31" opacity="1.000000" stroke="none" 
	d="
M1685.556519,314.475464 
	C1682.716553,319.531799 1678.902100,320.916931 1675.303467,318.513245 
	C1672.191650,316.434692 1671.262573,311.552063 1674.080566,308.930908 
	C1675.639893,307.480652 1678.522583,306.465088 1680.589600,306.764954 
	C1684.324829,307.306854 1686.065308,310.210968 1685.556519,314.475464 
z"/>
</svg>