<svg version="1.1" id="Layer_1" xmlns="http://www.w3.org/2000/svg" xmlns:xlink="http://www.w3.org/1999/xlink" x="0px" y="0px"
	 width="100%" viewBox="0 0 2000 637" enable-background="new 0 0 2000 637" xml:space="preserve">
<path fill="#FFFFFF" opacity="1.000000" stroke="none" 
	d="
M1379.000000,638.000000 
	C919.333313,638.000000 460.166656,638.000000 1.000000,638.000000 
	C1.000000,425.666656 1.000000,213.333328 1.000000,1.000000 
	C667.666687,1.000000 1334.333374,1.000000 2001.000000,1.000000 
	C2001.000000,213.333328 2001.000000,425.666656 2001.000000,638.000000 
	C1793.833374,638.000000 1586.666626,638.000000 1379.000000,638.000000 
M1088.500000,445.999664 
	C1212.239502,445.999664 1335.979004,445.999664 1459.688599,445.999664 
	C1459.688599,443.008545 1459.688599,440.737030 1459.688599,438.347809 
	C1019.298035,438.347809 579.147888,438.347809 139.029480,438.347809 
	C139.029480,440.978119 139.029480,443.256439 139.029480,445.440155 
	C139.558243,445.670715 139.853043,445.911835 140.147858,445.911865 
	C455.931915,445.951782 771.715942,445.975677 1088.500000,445.999664 
M1621.068481,282.551117 
	C1615.308960,297.398529 1614.263672,312.504730 1617.778809,328.102966 
	C1619.856201,337.321564 1621.740356,346.696075 1622.403442,356.092834 
	C1623.245728,368.028381 1623.103271,380.122955 1615.675293,390.293121 
	C1613.157349,391.133087 1609.649536,391.827423 1608.839844,393.692841 
	C1607.960449,395.718781 1609.590576,398.834045 1610.418701,402.913696 
	C1609.502686,405.110474 1607.926880,408.889282 1606.306030,412.776184 
	C1602.732788,411.245819 1599.696411,411.925415 1598.371582,415.511658 
	C1597.037231,419.123596 1599.786865,420.690094 1602.556396,422.347229 
	C1604.088135,423.263733 1605.563721,425.239838 1605.933472,426.978821 
	C1608.766602,440.301514 1616.281616,449.805634 1629.255859,453.819702 
	C1642.631836,457.958069 1654.979736,455.420197 1664.919556,444.835358 
	C1667.059692,442.556366 1668.630371,440.367554 1672.593506,440.855438 
	C1676.121582,441.289734 1678.063477,436.721466 1676.114502,433.530273 
	C1675.448486,432.439819 1674.401733,431.581909 1674.054688,431.198425 
	C1679.326538,411.903229 1691.177368,398.233551 1707.456543,388.179932 
	C1712.246582,385.221649 1717.246582,382.568359 1722.297363,380.073090 
	C1747.337646,367.702576 1762.470093,348.245697 1766.499634,320.214081 
	C1772.781372,276.514832 1740.725098,236.868576 1696.535278,234.165695 
	C1664.741089,232.220993 1634.944092,251.119156 1621.068481,282.551117 
M209.492996,317.666107 
	C214.274002,317.666107 219.055008,317.666107 223.846344,317.666107 
	C223.846344,311.481750 223.846344,305.892181 223.846344,299.886414 
	C206.527100,299.886414 189.453491,299.886414 172.307739,299.886414 
	C172.307739,295.194397 172.307739,290.928619 172.307739,286.266479 
	C193.309433,286.266479 214.083008,286.266479 234.844025,286.266479 
	C234.844025,279.969330 234.844025,274.077423 234.844025,268.247803 
	C205.929321,268.247803 177.343094,268.247803 148.636108,268.247803 
	C148.636108,295.907410 148.636108,323.312622 148.636108,350.767303 
	C178.003815,350.767303 207.091858,350.767303 236.212799,350.767303 
	C236.212799,344.653381 236.212799,338.786407 236.212799,332.605804 
	C214.717087,332.605804 193.600754,332.605804 172.332184,332.605804 
	C172.332184,327.521484 172.332184,322.764435 172.332184,317.666107 
	C184.555191,317.666107 196.525070,317.666107 209.492996,317.666107 
M1411.966431,348.606445 
	C1417.388916,345.770477 1422.811279,342.934509 1428.235352,340.097717 
	C1428.035522,342.399078 1428.147949,345.288452 1427.480591,347.984833 
	C1425.708130,355.146332 1419.308105,359.346680 1409.855347,359.996002 
	C1399.105591,360.734375 1388.821045,358.931488 1379.031372,353.926300 
	C1376.946411,359.290039 1375.030151,364.219574 1373.127808,369.113617 
	C1384.130859,375.939453 1407.212158,378.959808 1421.764526,375.563904 
	C1440.740234,371.135803 1450.299927,360.177246 1451.355591,340.722382 
	C1451.905518,330.590515 1451.561768,320.409363 1451.593140,310.250397 
	C1451.617554,302.293488 1451.597900,294.336487 1451.597900,286.250977 
	C1443.550781,286.250977 1435.976562,286.250977 1427.866455,286.250977 
	C1427.866455,289.003418 1427.866455,291.500519 1427.866455,294.755768 
	C1419.358887,285.017120 1409.046143,282.375610 1397.586548,283.103973 
	C1380.602539,284.183411 1368.483765,295.348816 1366.977783,311.121674 
	C1365.121216,330.567078 1373.344482,344.700439 1389.956299,348.409271 
	C1396.723267,349.920105 1404.083496,348.774170 1411.966431,348.606445 
M665.264221,298.296936 
	C661.241699,292.228149 655.580627,288.338409 648.800964,285.953094 
	C638.795776,282.432922 628.568176,282.277679 618.248535,284.095795 
	C599.908142,287.326965 588.788574,299.947937 588.313477,317.968842 
	C587.861450,335.119293 598.031433,347.697266 615.937256,352.093842 
	C627.493835,354.931458 639.077515,354.726196 650.548096,351.811646 
	C657.112549,350.143677 663.251709,347.388123 668.315186,342.252777 
	C664.283997,338.040802 660.503540,334.090820 656.588257,329.999939 
	C647.531067,337.289459 637.266113,338.183380 626.563538,336.968750 
	C617.562683,335.947235 612.214050,331.422485 611.152344,323.712189 
	C612.837463,323.712189 614.468994,323.712189 616.100525,323.712189 
	C632.763794,323.712189 649.428589,323.593201 666.089294,323.801086 
	C669.953857,323.849274 671.568359,322.348572 670.819092,318.919281 
	C669.348389,312.188477 667.442505,305.552765 665.264221,298.296936 
M424.652039,353.945465 
	C439.077820,354.337036 452.871185,352.547272 464.677826,342.398254 
	C460.329010,338.468201 456.162628,334.703033 451.818604,330.777313 
	C443.461273,337.554779 432.969025,338.218781 422.146545,336.884064 
	C413.514557,335.819489 408.480865,331.229980 407.362976,323.711792 
	C409.054840,323.711792 410.708588,323.711792 412.362335,323.711792 
	C429.020447,323.711792 445.678589,323.705475 462.336700,323.718842 
	C464.699738,323.720734 466.790070,324.090729 467.093140,320.437042 
	C468.389771,304.805603 460.075043,291.178314 445.294678,286.062286 
	C432.094513,281.493195 418.762146,281.716644 405.722656,286.761871 
	C392.090485,292.036499 384.880676,303.086334 384.703339,318.182312 
	C384.527802,333.127869 391.611847,344.550323 405.312836,349.758789 
	C411.129639,351.970062 417.554108,352.582733 424.652039,353.945465 
M1064.217773,286.182556 
	C1052.188599,282.229126 1040.018066,281.902344 1027.799805,285.062561 
	C1011.245117,289.344452 1001.492798,301.638214 1001.304871,318.179596 
	C1001.117065,334.703674 1011.064819,347.466553 1027.717163,351.920898 
	C1037.199585,354.457336 1046.795898,354.632996 1056.440796,352.916992 
	C1073.724731,349.841949 1084.778076,338.710846 1086.757202,322.394409 
	C1088.707397,306.317810 1080.728638,293.200928 1064.217773,286.182556 
M1286.512085,284.928314 
	C1281.629272,287.814362 1276.746460,290.700439 1271.692017,293.687958 
	C1271.692017,291.568817 1271.692017,288.865723 1271.692017,286.244629 
	C1263.718750,286.244629 1256.291138,286.244629 1248.754517,286.244629 
	C1248.754517,307.915283 1248.754517,329.336151 1248.754517,350.619141 
	C1256.583862,350.619141 1264.145386,350.619141 1271.838745,350.619141 
	C1271.838745,338.749451 1271.823975,327.264313 1271.857056,315.779266 
	C1271.861328,314.302155 1271.761841,312.677643 1272.310181,311.373505 
	C1275.407593,304.007050 1286.022461,299.080811 1294.688354,300.819366 
	C1301.981445,302.282471 1304.719482,306.754272 1304.730225,317.280212 
	C1304.741699,328.423096 1304.732910,339.565948 1304.732910,350.669983 
	C1312.664307,350.669983 1320.229004,350.669983 1327.899536,350.669983 
	C1327.899536,337.356171 1328.440430,324.343475 1327.656128,311.411133 
	C1327.299561,305.530304 1325.407959,299.130249 1322.305298,294.155304 
	C1315.779053,283.690887 1302.337891,280.608948 1286.512085,284.928314 
M1205.042358,307.500122 
	C1205.042358,300.407532 1205.042358,293.314941 1205.042358,286.233582 
	C1197.052734,286.233582 1189.635620,286.233582 1181.896240,286.233582 
	C1181.896240,297.753143 1182.042114,309.043121 1181.779907,320.323608 
	C1181.723755,322.739807 1180.661011,325.457062 1179.242310,327.453217 
	C1175.691406,332.449432 1170.519409,334.977722 1164.421021,335.606415 
	C1154.875977,336.590485 1149.086792,331.510101 1148.980225,321.896332 
	C1148.897095,314.403625 1148.960938,306.909271 1148.960083,299.415649 
	C1148.959595,294.995056 1148.959961,290.574493 1148.959961,286.252991 
	C1140.874756,286.252991 1133.442505,286.252991 1125.798462,286.252991 
	C1125.798462,299.134796 1125.517090,311.770721 1125.862915,324.389465 
	C1126.411987,344.426788 1140.883179,355.911713 1160.694702,352.634125 
	C1168.934692,351.270966 1175.907959,347.722321 1181.957031,340.470703 
	C1181.957031,344.703552 1181.957031,347.638885 1181.957031,350.704834 
	C1189.756714,350.704834 1197.303589,350.704834 1205.042358,350.704834 
	C1205.042358,336.438995 1205.042358,322.469482 1205.042358,307.500122 
M915.198486,279.244019 
	C913.164001,276.204895 911.212280,273.104767 909.046631,270.162170 
	C908.357971,269.226410 907.112061,268.115570 906.100586,268.095001 
	C897.896545,267.927917 889.687744,268.001160 880.788940,268.001160 
	C893.272766,285.732239 905.292236,302.654388 917.080872,319.735809 
	C918.560669,321.880127 919.429321,324.839142 919.537048,327.463501 
	C919.855652,335.227570 919.651001,343.013123 919.651001,350.700562 
	C927.933777,350.700562 935.682556,350.700562 943.743958,350.700562 
	C943.743958,342.768311 943.520447,335.126007 943.861450,327.508942 
	C943.986084,324.724518 944.842285,321.580719 946.402527,319.315704 
	C957.345703,303.429596 968.565002,287.733795 979.678223,271.964600 
	C980.485046,270.819763 981.151611,269.576080 982.117432,267.995331 
	C974.396545,267.995331 967.245422,268.239563 960.123230,267.891541 
	C956.600525,267.719421 954.786499,269.156921 953.018250,271.861115 
	C946.120178,282.410461 939.045288,292.844147 931.734314,303.772064 
	C926.148743,295.461426 920.892761,287.641205 915.198486,279.244019 
M849.270508,302.346863 
	C851.074707,302.346863 852.878967,302.346863 854.649414,302.346863 
	C854.649414,296.658966 854.649414,291.422699 854.649414,285.819275 
	C846.252808,285.819275 838.163696,285.819275 829.701904,285.819275 
	C829.701904,280.693390 829.701904,275.937592 829.701904,271.047974 
	C821.877869,271.047974 814.440491,271.047974 806.654541,271.047974 
	C806.654541,276.011108 806.654541,280.791412 806.654541,286.102966 
	C802.587097,286.102966 798.856140,286.102966 795.181946,286.102966 
	C795.181946,291.753143 795.181946,296.865784 795.181946,302.477692 
	C798.942444,302.477692 802.526978,302.477692 806.580200,302.477692 
	C806.580200,304.763702 806.571655,306.554352 806.581665,308.344879 
	C806.624512,316.003723 806.405029,323.675873 806.785583,331.318085 
	C807.284363,341.333466 812.532410,348.175293 822.079468,351.281555 
	C832.791687,354.766968 843.121826,352.829834 852.996033,348.024475 
	C854.030579,347.520996 855.086609,345.430725 854.882324,344.303162 
	C854.120850,340.100372 852.837891,335.992065 851.942688,332.580444 
	C846.904663,333.139221 842.344177,334.084686 837.797974,334.020538 
	C833.595215,333.961243 830.288025,331.360352 830.089294,326.962219 
	C829.723022,318.856598 829.984680,310.722595 829.984680,302.346832 
	C836.362610,302.346832 842.342590,302.346832 849.270508,302.346863 
M760.928772,348.179260 
	C761.630005,346.921112 763.092468,345.528015 762.897583,344.428741 
	C762.150818,340.216705 760.871887,336.099060 759.949890,332.554901 
	C754.990845,333.123810 750.446289,334.075684 745.909546,334.039734 
	C741.708801,334.006439 738.323486,331.460938 738.109863,327.068665 
	C737.715393,318.958618 737.997131,310.815704 737.997131,302.304352 
	C746.439941,302.304352 754.551270,302.304352 762.658142,302.304352 
	C762.658142,296.674896 762.658142,291.440552 762.658142,285.832275 
	C754.267883,285.832275 746.175476,285.832275 737.708618,285.832275 
	C737.708618,280.700897 737.708618,275.941589 737.708618,271.050354 
	C729.879456,271.050354 722.440063,271.050354 714.647827,271.050354 
	C714.647827,276.011475 714.647827,280.797668 714.647827,286.112122 
	C710.575012,286.112122 706.843567,286.112122 703.193604,286.112122 
	C703.193604,291.764893 703.193604,296.877350 703.193604,302.494690 
	C706.966125,302.494690 710.550049,302.494690 714.722534,302.494690 
	C714.722534,312.453217 714.408752,321.922913 714.805420,331.362762 
	C715.257263,342.116882 722.039734,349.600189 732.513855,352.012207 
	C742.190186,354.240448 751.329041,352.376678 760.928772,348.179260 
M295.263428,291.097260 
	C293.959412,289.398132 292.747772,286.325104 291.335968,286.230225 
	C283.983551,285.736084 276.580231,285.999908 268.596741,285.999908 
	C279.121857,307.413086 289.255829,328.115570 299.550140,348.738037 
	C300.099426,349.838501 301.976532,350.851654 303.275452,350.903442 
	C309.097260,351.135498 314.942139,350.816620 320.761017,351.082764 
	C323.738617,351.218964 325.048492,350.060577 326.289429,347.504547 
	C335.645142,328.234314 345.171875,309.047150 354.624725,289.823944 
	C355.180176,288.694427 355.557892,287.477478 356.138031,285.995331 
	C351.531067,285.995331 347.283508,286.549713 343.238647,285.880005 
	C334.796509,284.482330 330.672607,287.934296 327.753937,295.815155 
	C323.565918,307.123413 317.986511,317.916351 312.694031,329.607666 
	C306.790894,316.486603 301.227783,304.121368 295.263428,291.097260 
M550.926697,284.376892 
	C542.274780,285.551758 535.112549,289.486206 529.024170,297.408081 
	C529.024170,292.786438 529.024170,289.545044 529.024170,286.344666 
	C521.153625,286.344666 513.619141,286.344666 506.299469,286.344666 
	C506.299469,308.068909 506.299469,329.444244 506.299469,350.765808 
	C514.021423,350.765808 521.438049,350.765808 528.794128,350.765808 
	C528.955750,350.235443 529.124573,349.938385 529.125549,349.640808 
	C529.150513,341.824158 529.163635,334.007477 529.167297,326.190796 
	C529.172546,314.761841 534.223633,307.992920 545.377625,304.941742 
	C549.005981,303.949158 552.797424,303.552826 556.441406,302.896912 
	C556.441406,296.545441 556.441406,290.437714 556.441406,284.221863 
	C554.725586,284.221863 553.251587,284.221863 550.926697,284.376892 
M1704.906006,438.110138 
	C1706.911011,448.557983 1708.957886,458.998077 1710.897705,469.458008 
	C1711.567871,473.071625 1713.333374,475.585938 1717.209351,474.879578 
	C1721.276855,474.138275 1721.573486,470.815643 1720.930786,467.436951 
	C1718.911255,456.821136 1717.062012,446.162079 1714.572998,435.655579 
	C1714.074585,433.551697 1711.062744,430.599182 1709.180420,430.577423 
	C1705.615967,430.536316 1703.820557,433.453003 1704.906006,438.110138 
M1531.867432,304.826202 
	C1534.183472,305.563629 1536.452026,306.663849 1538.823975,306.975067 
	C1548.532471,308.248688 1558.297485,309.106537 1567.987915,310.493500 
	C1571.618164,311.013062 1574.567871,310.774506 1575.351562,306.853760 
	C1576.201904,302.599365 1573.326904,301.006866 1569.569824,300.562683 
	C1558.851807,299.295441 1548.143311,297.944916 1537.415649,296.765381 
	C1531.926147,296.161835 1530.114868,298.537903 1531.867432,304.826202 
M1825.932007,342.306793 
	C1829.228638,342.658173 1832.566528,342.793884 1835.811035,343.416870 
	C1839.654907,344.154938 1842.746338,343.383850 1843.332153,339.250549 
	C1843.902466,335.226410 1840.885864,333.934387 1837.392822,333.532043 
	C1827.012695,332.336456 1816.628540,331.167023 1806.265503,329.835541 
	C1802.569580,329.360718 1799.324219,329.593475 1798.793701,334.030914 
	C1798.295898,338.194336 1801.476196,339.400970 1804.782471,339.835358 
	C1811.523315,340.720947 1818.291382,341.398529 1825.932007,342.306793 
M1739.098267,196.487183 
	C1736.784058,201.434494 1734.243896,206.292938 1732.247925,211.365494 
	C1731.204468,214.017609 1731.119141,216.951797 1734.829224,218.293579 
	C1738.200073,219.512680 1740.167603,218.264038 1741.572144,215.232880 
	C1746.234009,205.172134 1750.951904,195.137360 1755.670044,185.102829 
	C1757.130493,181.996765 1757.092651,179.018982 1753.806152,177.388641 
	C1750.192261,175.595901 1747.842896,177.757401 1746.334961,180.959320 
	C1744.008667,185.899368 1741.739380,190.866348 1739.098267,196.487183 
M1785.035400,404.480286 
	C1782.598389,402.219391 1780.131226,399.989746 1777.732422,397.689056 
	C1775.184692,395.245667 1772.383423,393.869873 1769.489258,396.789307 
	C1766.589722,399.714050 1767.915527,402.537445 1770.511597,404.971954 
	C1778.391846,412.361786 1786.268555,419.755615 1794.187378,427.104034 
	C1796.588623,429.332214 1799.455078,430.527496 1802.094116,427.844635 
	C1804.869629,425.022858 1803.889526,422.181061 1801.162109,419.659424 
	C1795.914673,414.808044 1790.742798,409.874908 1785.035400,404.480286 
M1653.598999,174.063797 
	C1655.662109,184.650757 1657.721680,195.238388 1659.790283,205.824295 
	C1660.413696,209.014740 1662.527710,210.493179 1665.555908,209.849503 
	C1668.721802,209.176575 1670.223022,207.044098 1669.526245,203.568939 
	C1667.373291,192.830368 1665.220215,182.089767 1663.281982,171.311325 
	C1662.630859,167.690079 1661.177734,165.107666 1657.246094,165.652695 
	C1652.767700,166.273575 1652.536011,169.624832 1653.598999,174.063797 
M1794.065430,266.400574 
	C1803.082275,261.457642 1812.064453,256.449860 1821.133911,251.605453 
	C1824.493896,249.810593 1826.845337,247.432800 1824.700439,243.735291 
	C1822.743774,240.362244 1819.496216,240.956375 1816.392578,242.679062 
	C1807.113037,247.829727 1797.812866,252.943527 1788.485962,258.007874 
	C1785.237671,259.771637 1783.550537,262.351013 1785.380981,265.732574 
	C1787.325195,269.324646 1790.455811,268.791138 1794.065430,266.400574 
M1575.056030,376.631989 
	C1567.214966,380.950867 1559.233154,385.043793 1551.647461,389.772339 
	C1550.061279,390.761108 1548.823730,394.438965 1549.390259,396.269531 
	C1550.320190,399.273804 1553.353027,399.971710 1556.396362,398.319275 
	C1559.456665,396.657562 1562.518677,394.998688 1565.568481,393.317780 
	C1572.392700,389.556458 1579.227417,385.813416 1586.021729,381.998901 
	C1589.037720,380.305695 1590.480103,377.569122 1588.707764,374.493195 
	C1587.088501,371.682770 1584.248169,371.347260 1581.330444,373.091461 
	C1579.482300,374.196259 1577.559570,375.176392 1575.056030,376.631989 
M1598.636597,244.219238 
	C1601.421509,245.901917 1604.365234,245.406769 1605.288208,242.607224 
	C1605.925659,240.673569 1605.056274,237.260590 1603.583008,235.778580 
	C1595.984375,228.135422 1587.929688,220.947983 1580.130615,213.500488 
	C1577.530884,211.018066 1574.854858,209.589249 1572.040527,212.667053 
	C1569.378906,215.577972 1570.444946,218.315598 1573.180054,220.825714 
	C1581.490479,228.453064 1589.704468,236.185455 1598.636597,244.219238 
M1568.343384,258.261139 
	C1564.431519,256.452545 1560.654419,254.113693 1556.548096,253.071198 
	C1554.649170,252.589157 1552.108032,254.636292 1549.858154,255.536758 
	C1550.769897,257.735474 1551.068481,261.018921 1552.701416,261.941956 
	C1559.182373,265.605560 1566.033325,268.636810 1572.847168,271.678253 
	C1575.525024,272.873566 1578.459351,273.303467 1580.105591,269.836761 
	C1581.623657,266.640106 1580.304443,264.320801 1577.474731,262.790283 
	C1574.709351,261.294586 1571.814941,260.037506 1568.343384,258.261139 
M1814.047363,374.599030 
	C1809.722656,372.535339 1805.535522,370.030304 1801.007812,368.617188 
	C1799.098145,368.021118 1795.609131,369.023895 1794.365112,370.547119 
	C1792.364136,372.997406 1793.435913,376.021271 1796.500854,377.517975 
	C1803.478638,380.925293 1810.502197,384.244110 1817.573120,387.453247 
	C1820.420532,388.745514 1822.798340,387.803833 1824.219360,384.984467 
	C1825.712524,382.022186 1824.483276,379.790375 1821.888794,378.309448 
	C1819.601562,377.003784 1817.131958,376.017487 1814.047363,374.599030 
M1745.327759,437.251373 
	C1747.985107,442.012238 1750.331665,446.995026 1753.479980,451.405609 
	C1754.489624,452.820068 1757.934814,453.633148 1759.674072,453.025909 
	C1761.036499,452.550262 1762.727417,448.871796 1762.138062,447.626556 
	C1758.539185,440.023743 1754.557617,432.568604 1750.121704,425.425659 
	C1749.296387,424.096558 1745.286377,423.417175 1743.739990,424.260345 
	C1742.363892,425.010590 1741.698120,428.365753 1741.942261,430.426147 
	C1742.196289,432.570190 1743.916138,434.540527 1745.327759,437.251373 
M1632.217041,209.472580 
	C1628.732178,203.068924 1625.211182,196.684540 1621.777954,190.253265 
	C1620.132812,187.171219 1617.733032,185.640503 1614.454102,187.183228 
	C1610.980591,188.817505 1611.069458,191.828308 1612.649292,194.807602 
	C1615.985840,201.099930 1619.184692,207.493164 1623.008301,213.482086 
	C1624.140259,215.255020 1627.295532,216.907455 1629.305298,216.680649 
	C1632.508545,216.319183 1633.534424,213.371826 1632.217041,209.472580 
M1707.682373,169.953949 
	C1703.622803,168.970474 1701.246094,170.512192 1700.682861,174.677689 
	C1699.702026,181.928787 1698.683716,189.175903 1697.818359,196.441025 
	C1697.417969,199.801407 1698.555542,202.687088 1702.323364,202.881775 
	C1705.880493,203.065552 1707.526855,200.665390 1707.932007,197.188141 
	C1708.721069,190.416367 1709.921875,183.682617 1710.430908,176.894043 
	C1710.592041,174.745468 1709.095703,172.472580 1707.682373,169.953949 
M1833.562988,297.347198 
	C1836.485596,295.757721 1837.204346,292.890472 1835.504639,290.654419 
	C1834.339355,289.121643 1831.265625,288.081329 1829.237305,288.338318 
	C1822.502075,289.191803 1815.868530,290.817139 1809.166016,291.973236 
	C1805.700195,292.571075 1802.704956,293.782898 1803.287476,297.823090 
	C1803.902466,302.089417 1807.317261,302.704315 1810.937622,302.032379 
	C1818.276489,300.670227 1825.591675,299.179779 1833.562988,297.347198 
M1552.443481,350.790802 
	C1557.308838,349.831757 1562.333130,349.322418 1566.958740,347.686005 
	C1568.737427,347.056763 1569.608032,343.861053 1570.892456,341.834839 
	C1568.815552,340.573639 1566.594360,338.054199 1564.687256,338.273010 
	C1557.158813,339.136749 1549.648315,340.552582 1542.320068,342.481964 
	C1540.510742,342.958344 1539.413940,346.140503 1537.989502,348.078796 
	C1539.925171,349.455688 1541.715332,351.608215 1543.834595,352.005524 
	C1546.274292,352.462891 1549.004761,351.368805 1552.443481,350.790802 
M1790.427368,217.835037 
	C1792.843750,215.465607 1794.189331,212.529129 1791.248047,210.131012 
	C1789.822754,208.968979 1785.961304,208.583405 1784.849609,209.617249 
	C1778.886597,215.162567 1773.207031,221.070297 1768.008545,227.333496 
	C1766.913452,228.652985 1767.402710,232.645630 1768.653076,234.228149 
	C1770.424561,236.469849 1773.316040,236.054108 1775.544189,233.625259 
	C1780.270752,228.472687 1785.114624,223.427658 1790.427368,217.835037 
z"/>
<path fill="#587553" opacity="1.000000" stroke="none" 
	d="
M1088.000000,445.999664 
	C771.715942,445.975677 455.931915,445.951782 140.147858,445.911865 
	C139.853043,445.911835 139.558243,445.670715 139.029480,445.440155 
	C139.029480,443.256439 139.029480,440.978119 139.029480,438.347809 
	C579.147888,438.347809 1019.298035,438.347809 1459.688599,438.347809 
	C1459.688599,440.737030 1459.688599,443.008545 1459.688599,445.999664 
	C1335.979004,445.999664 1212.239502,445.999664 1088.000000,445.999664 
z"/>
<path fill="#060606" opacity="1.000000" stroke="none" 
	d="
M1621.213623,282.197968 
	C1634.944092,251.119156 1664.741089,232.220993 1696.535278,234.165695 
	C1740.725098,236.868576 1772.781372,276.514832 1766.499634,320.214081 
	C1762.470093,348.245697 1747.337646,367.702576 1722.297363,380.073090 
	C1717.246582,382.568359 1712.246582,385.221649 1707.456543,388.179932 
	C1691.177368,398.233551 1679.326538,411.903229 1674.054688,431.198425 
	C1674.401733,431.581909 1675.448486,432.439819 1676.114502,433.530273 
	C1678.063477,436.721466 1676.121582,441.289734 1672.593506,440.855438 
	C1668.630371,440.367554 1667.059692,442.556366 1664.919556,444.835358 
	C1654.979736,455.420197 1642.631836,457.958069 1629.255859,453.819702 
	C1616.281616,449.805634 1608.766602,440.301514 1605.933472,426.978821 
	C1605.563721,425.239838 1604.088135,423.263733 1602.556396,422.347229 
	C1599.786865,420.690094 1597.037231,419.123596 1598.371582,415.511658 
	C1599.696411,411.925415 1602.732788,411.245819 1606.306030,412.776184 
	C1607.926880,408.889282 1609.502686,405.110474 1610.418701,402.913696 
	C1609.590576,398.834045 1607.960449,395.718781 1608.839844,393.692841 
	C1609.649536,391.827423 1613.157349,391.133087 1615.675293,390.293121 
	C1623.103271,380.122955 1623.245728,368.028381 1622.403442,356.092834 
	C1621.740356,346.696075 1619.856201,337.321564 1617.778809,328.102966 
	C1614.263672,312.504730 1615.308960,297.398529 1621.213623,282.197968 
M1756.758301,302.031189 
	C1756.601685,301.213135 1756.420166,300.398956 1756.292114,299.576447 
	C1750.385132,261.648926 1714.526733,237.327850 1677.381592,246.059341 
	C1643.291626,254.072647 1620.683960,287.449432 1627.129028,321.762848 
	C1630.581421,340.142700 1634.733154,358.270386 1631.909302,377.135498 
	C1631.763184,378.111572 1632.953979,379.870117 1633.958496,380.348511 
	C1648.346802,387.201630 1662.810181,393.896973 1677.593140,400.787750 
	C1689.636719,386.467255 1705.098877,376.926819 1721.682495,368.843170 
	C1726.116699,366.681671 1730.265015,363.678345 1734.044312,360.471741 
	C1751.820679,345.389282 1758.220581,325.672943 1756.758301,302.031189 
M1641.164673,403.255341 
	C1644.358154,404.878296 1645.661499,407.413605 1643.846802,410.623169 
	C1641.982300,413.920654 1639.011963,413.536530 1636.000732,412.120026 
	C1631.082275,409.806396 1626.141357,407.540619 1620.610840,404.976990 
	C1618.927856,409.229492 1617.336060,413.251434 1615.717773,417.340454 
	C1622.607300,420.573853 1628.719971,423.542450 1634.920898,426.314056 
	C1638.414185,427.875519 1641.510864,429.728394 1639.364990,434.070129 
	C1637.198975,438.452423 1633.742065,436.912201 1630.397461,435.297852 
	C1626.363159,433.350494 1622.238159,431.591370 1617.070068,429.263184 
	C1621.454224,438.949707 1627.752441,444.149933 1636.930786,445.201447 
	C1645.739136,446.210602 1653.136841,443.218201 1659.020996,436.051941 
	C1655.641357,433.239502 1648.267822,432.836090 1651.749756,426.332825 
	C1655.115845,420.045898 1659.747314,425.776306 1664.187256,426.617645 
	C1666.837646,420.945007 1669.466675,415.317749 1672.169434,409.533173 
	C1657.303589,402.608093 1642.829346,395.865448 1628.241333,389.069794 
	C1627.099731,391.534637 1626.194092,393.490051 1625.150269,395.743835 
	C1630.305298,398.177673 1635.388428,400.577545 1641.164673,403.255341 
z"/>
<path fill="#030303" opacity="1.000000" stroke="none" 
	d="
M208.993958,317.666107 
	C196.525070,317.666107 184.555191,317.666107 172.332184,317.666107 
	C172.332184,322.764435 172.332184,327.521484 172.332184,332.605804 
	C193.600754,332.605804 214.717087,332.605804 236.212799,332.605804 
	C236.212799,338.786407 236.212799,344.653381 236.212799,350.767303 
	C207.091858,350.767303 178.003815,350.767303 148.636108,350.767303 
	C148.636108,323.312622 148.636108,295.907410 148.636108,268.247803 
	C177.343094,268.247803 205.929321,268.247803 234.844025,268.247803 
	C234.844025,274.077423 234.844025,279.969330 234.844025,286.266479 
	C214.083008,286.266479 193.309433,286.266479 172.307739,286.266479 
	C172.307739,290.928619 172.307739,295.194397 172.307739,299.886414 
	C189.453491,299.886414 206.527100,299.886414 223.846344,299.886414 
	C223.846344,305.892181 223.846344,311.481750 223.846344,317.666107 
	C219.055008,317.666107 214.274002,317.666107 208.993958,317.666107 
z"/>
<path fill="#040404" opacity="1.000000" stroke="none" 
	d="
M1411.570068,348.721741 
	C1404.083496,348.774170 1396.723267,349.920105 1389.956299,348.409271 
	C1373.344482,344.700439 1365.121216,330.567078 1366.977783,311.121674 
	C1368.483765,295.348816 1380.602539,284.183411 1397.586548,283.103973 
	C1409.046143,282.375610 1419.358887,285.017120 1427.866455,294.755768 
	C1427.866455,291.500519 1427.866455,289.003418 1427.866455,286.250977 
	C1435.976562,286.250977 1443.550781,286.250977 1451.597900,286.250977 
	C1451.597900,294.336487 1451.617554,302.293488 1451.593140,310.250397 
	C1451.561768,320.409363 1451.905518,330.590515 1451.355591,340.722382 
	C1450.299927,360.177246 1440.740234,371.135803 1421.764526,375.563904 
	C1407.212158,378.959808 1384.130859,375.939453 1373.127808,369.113617 
	C1375.030151,364.219574 1376.946411,359.290039 1379.031372,353.926300 
	C1388.821045,358.931488 1399.105591,360.734375 1409.855347,359.996002 
	C1419.308105,359.346680 1425.708130,355.146332 1427.480591,347.984833 
	C1428.147949,345.288452 1428.035522,342.399078 1428.235352,340.097717 
	C1422.811279,342.934509 1417.388916,345.770477 1411.570068,348.721741 
M1395.051758,329.602539 
	C1400.487549,333.297089 1406.601318,333.741394 1412.752319,332.659546 
	C1419.177612,331.529358 1425.150513,328.535980 1427.897095,322.500336 
	C1431.075073,315.516388 1427.801880,307.858948 1421.166138,303.669800 
	C1415.708862,300.224701 1409.683105,299.339081 1403.452881,300.330688 
	C1397.049316,301.349792 1391.730103,304.149078 1389.835693,310.997650 
	C1387.932129,317.879517 1388.772705,324.143524 1395.051758,329.602539 
z"/>
<path fill="#050505" opacity="1.000000" stroke="none" 
	d="
M665.490479,298.587311 
	C667.442505,305.552765 669.348389,312.188477 670.819092,318.919281 
	C671.568359,322.348572 669.953857,323.849274 666.089294,323.801086 
	C649.428589,323.593201 632.763794,323.712189 616.100525,323.712189 
	C614.468994,323.712189 612.837463,323.712189 611.152344,323.712189 
	C612.214050,331.422485 617.562683,335.947235 626.563538,336.968750 
	C637.266113,338.183380 647.531067,337.289459 656.588257,329.999939 
	C660.503540,334.090820 664.283997,338.040802 668.315186,342.252777 
	C663.251709,347.388123 657.112549,350.143677 650.548096,351.811646 
	C639.077515,354.726196 627.493835,354.931458 615.937256,352.093842 
	C598.031433,347.697266 587.861450,335.119293 588.313477,317.968842 
	C588.788574,299.947937 599.908142,287.326965 618.248535,284.095795 
	C628.568176,282.277679 638.795776,282.432922 648.800964,285.953094 
	C655.580627,288.338409 661.241699,292.228149 665.490479,298.587311 
M625.463257,299.817566 
	C618.855896,300.848389 613.801208,303.790466 611.520569,310.628357 
	C624.293884,310.628357 636.574280,310.628357 649.016724,310.628357 
	C645.372742,301.473572 638.295532,298.171387 625.463257,299.817566 
z"/>
<path fill="#040404" opacity="1.000000" stroke="none" 
	d="
M424.177246,353.933716 
	C417.554108,352.582733 411.129639,351.970062 405.312836,349.758789 
	C391.611847,344.550323 384.527802,333.127869 384.703339,318.182312 
	C384.880676,303.086334 392.090485,292.036499 405.722656,286.761871 
	C418.762146,281.716644 432.094513,281.493195 445.294678,286.062286 
	C460.075043,291.178314 468.389771,304.805603 467.093140,320.437042 
	C466.790070,324.090729 464.699738,323.720734 462.336700,323.718842 
	C445.678589,323.705475 429.020447,323.711792 412.362335,323.711792 
	C410.708588,323.711792 409.054840,323.711792 407.362976,323.711792 
	C408.480865,331.229980 413.514557,335.819489 422.146545,336.884064 
	C432.969025,338.218781 443.461273,337.554779 451.818604,330.777313 
	C456.162628,334.703033 460.329010,338.468201 464.677826,342.398254 
	C452.871185,352.547272 439.077820,354.337036 424.177246,353.933716 
M433.477478,310.988556 
	C437.327057,310.988556 441.176666,310.988556 445.262054,310.988556 
	C442.266724,302.455505 435.571106,298.701355 425.547455,299.289246 
	C415.586884,299.873444 409.675171,303.795776 408.161194,310.993744 
	C416.295624,310.993744 424.390625,310.993744 433.477478,310.988556 
z"/>
<path fill="#030303" opacity="1.000000" stroke="none" 
	d="
M1064.572388,286.343994 
	C1080.728638,293.200928 1088.707397,306.317810 1086.757202,322.394409 
	C1084.778076,338.710846 1073.724731,349.841949 1056.440796,352.916992 
	C1046.795898,354.632996 1037.199585,354.457336 1027.717163,351.920898 
	C1011.064819,347.466553 1001.117065,334.703674 1001.304871,318.179596 
	C1001.492798,301.638214 1011.245117,289.344452 1027.799805,285.062561 
	C1040.018066,281.902344 1052.188599,282.229126 1064.572388,286.343994 
M1041.790527,335.960083 
	C1043.619873,335.949524 1045.459229,336.058960 1047.276978,335.908203 
	C1056.412964,335.150757 1062.679688,330.119659 1064.226074,322.391754 
	C1066.233765,312.358429 1061.412354,304.482086 1051.653198,301.852386 
	C1039.392578,298.548645 1027.877930,303.048615 1024.734863,312.401764 
	C1024.369385,313.489136 1024.088013,314.632385 1023.969238,315.770782 
	C1022.772888,327.230774 1028.002686,333.433472 1041.790527,335.960083 
z"/>
<path fill="#020202" opacity="1.000000" stroke="none" 
	d="
M1286.901733,284.830200 
	C1302.337891,280.608948 1315.779053,283.690887 1322.305298,294.155304 
	C1325.407959,299.130249 1327.299561,305.530304 1327.656128,311.411133 
	C1328.440430,324.343475 1327.899536,337.356171 1327.899536,350.669983 
	C1320.229004,350.669983 1312.664307,350.669983 1304.732910,350.669983 
	C1304.732910,339.565948 1304.741699,328.423096 1304.730225,317.280212 
	C1304.719482,306.754272 1301.981445,302.282471 1294.688354,300.819366 
	C1286.022461,299.080811 1275.407593,304.007050 1272.310181,311.373505 
	C1271.761841,312.677643 1271.861328,314.302155 1271.857056,315.779266 
	C1271.823975,327.264313 1271.838745,338.749451 1271.838745,350.619141 
	C1264.145386,350.619141 1256.583862,350.619141 1248.754517,350.619141 
	C1248.754517,329.336151 1248.754517,307.915283 1248.754517,286.244629 
	C1256.291138,286.244629 1263.718750,286.244629 1271.692017,286.244629 
	C1271.692017,288.865723 1271.692017,291.568817 1271.692017,293.687958 
	C1276.746460,290.700439 1281.629272,287.814362 1286.901733,284.830200 
z"/>
<path fill="#010101" opacity="1.000000" stroke="none" 
	d="
M1205.042358,308.000061 
	C1205.042358,322.469482 1205.042358,336.438995 1205.042358,350.704834 
	C1197.303589,350.704834 1189.756714,350.704834 1181.957031,350.704834 
	C1181.957031,347.638885 1181.957031,344.703552 1181.957031,340.470703 
	C1175.907959,347.722321 1168.934692,351.270966 1160.694702,352.634125 
	C1140.883179,355.911713 1126.411987,344.426788 1125.862915,324.389465 
	C1125.517090,311.770721 1125.798462,299.134796 1125.798462,286.252991 
	C1133.442505,286.252991 1140.874756,286.252991 1148.959961,286.252991 
	C1148.959961,290.574493 1148.959595,294.995056 1148.960083,299.415649 
	C1148.960938,306.909271 1148.897095,314.403625 1148.980225,321.896332 
	C1149.086792,331.510101 1154.875977,336.590485 1164.421021,335.606415 
	C1170.519409,334.977722 1175.691406,332.449432 1179.242310,327.453217 
	C1180.661011,325.457062 1181.723755,322.739807 1181.779907,320.323608 
	C1182.042114,309.043121 1181.896240,297.753143 1181.896240,286.233582 
	C1189.635620,286.233582 1197.052734,286.233582 1205.042358,286.233582 
	C1205.042358,293.314941 1205.042358,300.407532 1205.042358,308.000061 
z"/>
<path fill="#030303" opacity="1.000000" stroke="none" 
	d="
M915.417603,279.532501 
	C920.892761,287.641205 926.148743,295.461426 931.734314,303.772064 
	C939.045288,292.844147 946.120178,282.410461 953.018250,271.861115 
	C954.786499,269.156921 956.600525,267.719421 960.123230,267.891541 
	C967.245422,268.239563 974.396545,267.995331 982.117432,267.995331 
	C981.151611,269.576080 980.485046,270.819763 979.678223,271.964600 
	C968.565002,287.733795 957.345703,303.429596 946.402527,319.315704 
	C944.842285,321.580719 943.986084,324.724518 943.861450,327.508942 
	C943.520447,335.126007 943.743958,342.768311 943.743958,350.700562 
	C935.682556,350.700562 927.933777,350.700562 919.651001,350.700562 
	C919.651001,343.013123 919.855652,335.227570 919.537048,327.463501 
	C919.429321,324.839142 918.560669,321.880127 917.080872,319.735809 
	C905.292236,302.654388 893.272766,285.732239 880.788940,268.001160 
	C889.687744,268.001160 897.896545,267.927917 906.100586,268.095001 
	C907.112061,268.115570 908.357971,269.226410 909.046631,270.162170 
	C911.212280,273.104767 913.164001,276.204895 915.417603,279.532501 
z"/>
<path fill="#020202" opacity="1.000000" stroke="none" 
	d="
M848.796509,302.346863 
	C842.342590,302.346832 836.362610,302.346832 829.984680,302.346832 
	C829.984680,310.722595 829.723022,318.856598 830.089294,326.962219 
	C830.288025,331.360352 833.595215,333.961243 837.797974,334.020538 
	C842.344177,334.084686 846.904663,333.139221 851.942688,332.580444 
	C852.837891,335.992065 854.120850,340.100372 854.882324,344.303162 
	C855.086609,345.430725 854.030579,347.520996 852.996033,348.024475 
	C843.121826,352.829834 832.791687,354.766968 822.079468,351.281555 
	C812.532410,348.175293 807.284363,341.333466 806.785583,331.318085 
	C806.405029,323.675873 806.624512,316.003723 806.581665,308.344879 
	C806.571655,306.554352 806.580200,304.763702 806.580200,302.477692 
	C802.526978,302.477692 798.942444,302.477692 795.181946,302.477692 
	C795.181946,296.865784 795.181946,291.753143 795.181946,286.102966 
	C798.856140,286.102966 802.587097,286.102966 806.654541,286.102966 
	C806.654541,280.791412 806.654541,276.011108 806.654541,271.047974 
	C814.440491,271.047974 821.877869,271.047974 829.701904,271.047974 
	C829.701904,275.937592 829.701904,280.693390 829.701904,285.819275 
	C838.163696,285.819275 846.252808,285.819275 854.649414,285.819275 
	C854.649414,291.422699 854.649414,296.658966 854.649414,302.346863 
	C852.878967,302.346863 851.074707,302.346863 848.796509,302.346863 
z"/>
<path fill="#020202" opacity="1.000000" stroke="none" 
	d="
M760.588135,348.386597 
	C751.329041,352.376678 742.190186,354.240448 732.513855,352.012207 
	C722.039734,349.600189 715.257263,342.116882 714.805420,331.362762 
	C714.408752,321.922913 714.722534,312.453217 714.722534,302.494690 
	C710.550049,302.494690 706.966125,302.494690 703.193604,302.494690 
	C703.193604,296.877350 703.193604,291.764893 703.193604,286.112122 
	C706.843567,286.112122 710.575012,286.112122 714.647827,286.112122 
	C714.647827,280.797668 714.647827,276.011475 714.647827,271.050354 
	C722.440063,271.050354 729.879456,271.050354 737.708618,271.050354 
	C737.708618,275.941589 737.708618,280.700897 737.708618,285.832275 
	C746.175476,285.832275 754.267883,285.832275 762.658142,285.832275 
	C762.658142,291.440552 762.658142,296.674896 762.658142,302.304352 
	C754.551270,302.304352 746.439941,302.304352 737.997131,302.304352 
	C737.997131,310.815704 737.715393,318.958618 738.109863,327.068665 
	C738.323486,331.460938 741.708801,334.006439 745.909546,334.039734 
	C750.446289,334.075684 754.990845,333.123810 759.949890,332.554901 
	C760.871887,336.099060 762.150818,340.216705 762.897583,344.428741 
	C763.092468,345.528015 761.630005,346.921112 760.588135,348.386597 
z"/>
<path fill="#030303" opacity="1.000000" stroke="none" 
	d="
M295.464050,291.426697 
	C301.227783,304.121368 306.790894,316.486603 312.694031,329.607666 
	C317.986511,317.916351 323.565918,307.123413 327.753937,295.815155 
	C330.672607,287.934296 334.796509,284.482330 343.238647,285.880005 
	C347.283508,286.549713 351.531067,285.995331 356.138031,285.995331 
	C355.557892,287.477478 355.180176,288.694427 354.624725,289.823944 
	C345.171875,309.047150 335.645142,328.234314 326.289429,347.504547 
	C325.048492,350.060577 323.738617,351.218964 320.761017,351.082764 
	C314.942139,350.816620 309.097260,351.135498 303.275452,350.903442 
	C301.976532,350.851654 300.099426,349.838501 299.550140,348.738037 
	C289.255829,328.115570 279.121857,307.413086 268.596741,285.999908 
	C276.580231,285.999908 283.983551,285.736084 291.335968,286.230225 
	C292.747772,286.325104 293.959412,289.398132 295.464050,291.426697 
z"/>
<path fill="#020202" opacity="1.000000" stroke="none" 
	d="
M551.352112,284.299377 
	C553.251587,284.221863 554.725586,284.221863 556.441406,284.221863 
	C556.441406,290.437714 556.441406,296.545441 556.441406,302.896912 
	C552.797424,303.552826 549.005981,303.949158 545.377625,304.941742 
	C534.223633,307.992920 529.172546,314.761841 529.167297,326.190796 
	C529.163635,334.007477 529.150513,341.824158 529.125549,349.640808 
	C529.124573,349.938385 528.955750,350.235443 528.794128,350.765808 
	C521.438049,350.765808 514.021423,350.765808 506.299469,350.765808 
	C506.299469,329.444244 506.299469,308.068909 506.299469,286.344666 
	C513.619141,286.344666 521.153625,286.344666 529.024170,286.344666 
	C529.024170,289.545044 529.024170,292.786438 529.024170,297.408081 
	C535.112549,289.486206 542.274780,285.551758 551.352112,284.299377 
z"/>
<path fill="#080808" opacity="1.000000" stroke="none" 
	d="
M1704.843750,437.715027 
	C1703.820557,433.453003 1705.615967,430.536316 1709.180420,430.577423 
	C1711.062744,430.599182 1714.074585,433.551697 1714.572998,435.655579 
	C1717.062012,446.162079 1718.911255,456.821136 1720.930786,467.436951 
	C1721.573486,470.815643 1721.276855,474.138275 1717.209351,474.879578 
	C1713.333374,475.585938 1711.567871,473.071625 1710.897705,469.458008 
	C1708.957886,458.998077 1706.911011,448.557983 1704.843750,437.715027 
z"/>
<path fill="#060606" opacity="1.000000" stroke="none" 
	d="
M1531.622925,304.551086 
	C1530.114868,298.537903 1531.926147,296.161835 1537.415649,296.765381 
	C1548.143311,297.944916 1558.851807,299.295441 1569.569824,300.562683 
	C1573.326904,301.006866 1576.201904,302.599365 1575.351562,306.853760 
	C1574.567871,310.774506 1571.618164,311.013062 1567.987915,310.493500 
	C1558.297485,309.106537 1548.532471,308.248688 1538.823975,306.975067 
	C1536.452026,306.663849 1534.183472,305.563629 1531.622925,304.551086 
z"/>
<path fill="#060606" opacity="1.000000" stroke="none" 
	d="
M1825.490112,342.234314 
	C1818.291382,341.398529 1811.523315,340.720947 1804.782471,339.835358 
	C1801.476196,339.400970 1798.295898,338.194336 1798.793701,334.030914 
	C1799.324219,329.593475 1802.569580,329.360718 1806.265503,329.835541 
	C1816.628540,331.167023 1827.012695,332.336456 1837.392822,333.532043 
	C1840.885864,333.934387 1843.902466,335.226410 1843.332153,339.250549 
	C1842.746338,343.383850 1839.654907,344.154938 1835.811035,343.416870 
	C1832.566528,342.793884 1829.228638,342.658173 1825.490112,342.234314 
z"/>
<path fill="#070707" opacity="1.000000" stroke="none" 
	d="
M1739.272217,196.154541 
	C1741.739380,190.866348 1744.008667,185.899368 1746.334961,180.959320 
	C1747.842896,177.757401 1750.192261,175.595901 1753.806152,177.388641 
	C1757.092651,179.018982 1757.130493,181.996765 1755.670044,185.102829 
	C1750.951904,195.137360 1746.234009,205.172134 1741.572144,215.232880 
	C1740.167603,218.264038 1738.200073,219.512680 1734.829224,218.293579 
	C1731.119141,216.951797 1731.204468,214.017609 1732.247925,211.365494 
	C1734.243896,206.292938 1736.784058,201.434494 1739.272217,196.154541 
z"/>
<path fill="#070707" opacity="1.000000" stroke="none" 
	d="
M1785.287598,404.727997 
	C1790.742798,409.874908 1795.914673,414.808044 1801.162109,419.659424 
	C1803.889526,422.181061 1804.869629,425.022858 1802.094116,427.844635 
	C1799.455078,430.527496 1796.588623,429.332214 1794.187378,427.104034 
	C1786.268555,419.755615 1778.391846,412.361786 1770.511597,404.971954 
	C1767.915527,402.537445 1766.589722,399.714050 1769.489258,396.789307 
	C1772.383423,393.869873 1775.184692,395.245667 1777.732422,397.689056 
	C1780.131226,399.989746 1782.598389,402.219391 1785.287598,404.727997 
z"/>
<path fill="#070707" opacity="1.000000" stroke="none" 
	d="
M1653.471802,173.657532 
	C1652.536011,169.624832 1652.767700,166.273575 1657.246094,165.652695 
	C1661.177734,165.107666 1662.630859,167.690079 1663.281982,171.311325 
	C1665.220215,182.089767 1667.373291,192.830368 1669.526245,203.568939 
	C1670.223022,207.044098 1668.721802,209.176575 1665.555908,209.849503 
	C1662.527710,210.493179 1660.413696,209.014740 1659.790283,205.824295 
	C1657.721680,195.238388 1655.662109,184.650757 1653.471802,173.657532 
z"/>
<path fill="#060606" opacity="1.000000" stroke="none" 
	d="
M1793.772217,266.610077 
	C1790.455811,268.791138 1787.325195,269.324646 1785.380981,265.732574 
	C1783.550537,262.351013 1785.237671,259.771637 1788.485962,258.007874 
	C1797.812866,252.943527 1807.113037,247.829727 1816.392578,242.679062 
	C1819.496216,240.956375 1822.743774,240.362244 1824.700439,243.735291 
	C1826.845337,247.432800 1824.493896,249.810593 1821.133911,251.605453 
	C1812.064453,256.449860 1803.082275,261.457642 1793.772217,266.610077 
z"/>
<path fill="#060606" opacity="1.000000" stroke="none" 
	d="
M1575.363159,376.422180 
	C1577.559570,375.176392 1579.482300,374.196259 1581.330444,373.091461 
	C1584.248169,371.347260 1587.088501,371.682770 1588.707764,374.493195 
	C1590.480103,377.569122 1589.037720,380.305695 1586.021729,381.998901 
	C1579.227417,385.813416 1572.392700,389.556458 1565.568481,393.317780 
	C1562.518677,394.998688 1559.456665,396.657562 1556.396362,398.319275 
	C1553.353027,399.971710 1550.320190,399.273804 1549.390259,396.269531 
	C1548.823730,394.438965 1550.061279,390.761108 1551.647461,389.772339 
	C1559.233154,385.043793 1567.214966,380.950867 1575.363159,376.422180 
z"/>
<path fill="#070707" opacity="1.000000" stroke="none" 
	d="
M1598.296387,244.048096 
	C1589.704468,236.185455 1581.490479,228.453064 1573.180054,220.825714 
	C1570.444946,218.315598 1569.378906,215.577972 1572.040527,212.667053 
	C1574.854858,209.589249 1577.530884,211.018066 1580.130615,213.500488 
	C1587.929688,220.947983 1595.984375,228.135422 1603.583008,235.778580 
	C1605.056274,237.260590 1605.925659,240.673569 1605.288208,242.607224 
	C1604.365234,245.406769 1601.421509,245.901917 1598.296387,244.048096 
z"/>
<path fill="#080808" opacity="1.000000" stroke="none" 
	d="
M1568.660278,258.468384 
	C1571.814941,260.037506 1574.709351,261.294586 1577.474731,262.790283 
	C1580.304443,264.320801 1581.623657,266.640106 1580.105591,269.836761 
	C1578.459351,273.303467 1575.525024,272.873566 1572.847168,271.678253 
	C1566.033325,268.636810 1559.182373,265.605560 1552.701416,261.941956 
	C1551.068481,261.018921 1550.769897,257.735474 1549.858154,255.536743 
	C1552.108032,254.636292 1554.649170,252.589157 1556.548096,253.071198 
	C1560.654419,254.113693 1564.431519,256.452545 1568.660278,258.468384 
z"/>
<path fill="#070707" opacity="1.000000" stroke="none" 
	d="
M1814.395142,374.744598 
	C1817.131958,376.017487 1819.601562,377.003784 1821.888794,378.309448 
	C1824.483276,379.790375 1825.712524,382.022186 1824.219360,384.984467 
	C1822.798340,387.803833 1820.420532,388.745514 1817.573120,387.453247 
	C1810.502197,384.244110 1803.478638,380.925293 1796.500854,377.517975 
	C1793.435913,376.021271 1792.364136,372.997406 1794.365112,370.547119 
	C1795.609131,369.023895 1799.098145,368.021118 1801.007812,368.617188 
	C1805.535522,370.030304 1809.722656,372.535339 1814.395142,374.744598 
z"/>
<path fill="#080808" opacity="1.000000" stroke="none" 
	d="
M1745.161377,436.919098 
	C1743.916138,434.540527 1742.196289,432.570190 1741.942261,430.426147 
	C1741.698120,428.365753 1742.363892,425.010590 1743.739990,424.260345 
	C1745.286377,423.417175 1749.296387,424.096558 1750.121704,425.425659 
	C1754.557617,432.568604 1758.539185,440.023743 1762.138062,447.626556 
	C1762.727417,448.871796 1761.036499,452.550262 1759.674072,453.025909 
	C1757.934814,453.633148 1754.489624,452.820068 1753.479980,451.405609 
	C1750.331665,446.995026 1747.985107,442.012238 1745.161377,436.919098 
z"/>
<path fill="#070707" opacity="1.000000" stroke="none" 
	d="
M1632.419434,209.803528 
	C1633.534424,213.371826 1632.508545,216.319183 1629.305298,216.680649 
	C1627.295532,216.907455 1624.140259,215.255020 1623.008301,213.482086 
	C1619.184692,207.493164 1615.985840,201.099930 1612.649292,194.807602 
	C1611.069458,191.828308 1610.980591,188.817505 1614.454102,187.183228 
	C1617.733032,185.640503 1620.132812,187.171219 1621.777954,190.253265 
	C1625.211182,196.684540 1628.732178,203.068924 1632.419434,209.803528 
z"/>
<path fill="#070707" opacity="1.000000" stroke="none" 
	d="
M1708.020142,170.105255 
	C1709.095703,172.472580 1710.592041,174.745468 1710.430908,176.894043 
	C1709.921875,183.682617 1708.721069,190.416367 1707.932007,197.188141 
	C1707.526855,200.665390 1705.880493,203.065552 1702.323364,202.881775 
	C1698.555542,202.687088 1697.417969,199.801407 1697.818359,196.441025 
	C1698.683716,189.175903 1699.702026,181.928787 1700.682861,174.677689 
	C1701.246094,170.512192 1703.622803,168.970474 1708.020142,170.105255 
z"/>
<path fill="#070707" opacity="1.000000" stroke="none" 
	d="
M1833.239746,297.544708 
	C1825.591675,299.179779 1818.276489,300.670227 1810.937622,302.032379 
	C1807.317261,302.704315 1803.902466,302.089417 1803.287476,297.823090 
	C1802.704956,293.782898 1805.700195,292.571075 1809.166016,291.973236 
	C1815.868530,290.817139 1822.502075,289.191803 1829.237305,288.338318 
	C1831.265625,288.081329 1834.339355,289.121643 1835.504639,290.654419 
	C1837.204346,292.890472 1836.485596,295.757721 1833.239746,297.544708 
z"/>
<path fill="#060606" opacity="1.000000" stroke="none" 
	d="
M1552.026245,350.869629 
	C1549.004761,351.368805 1546.274292,352.462891 1543.834595,352.005524 
	C1541.715332,351.608215 1539.925171,349.455688 1537.989502,348.078796 
	C1539.413940,346.140503 1540.510742,342.958344 1542.320068,342.481964 
	C1549.648315,340.552582 1557.158813,339.136749 1564.687256,338.273010 
	C1566.594360,338.054199 1568.815552,340.573639 1570.892334,341.834839 
	C1569.608032,343.861053 1568.737427,347.056763 1566.958740,347.686005 
	C1562.333130,349.322418 1557.308838,349.831757 1552.026245,350.869629 
z"/>
<path fill="#060606" opacity="1.000000" stroke="none" 
	d="
M1790.168945,218.086792 
	C1785.114624,223.427658 1780.270752,228.472687 1775.544189,233.625259 
	C1773.316040,236.054108 1770.424561,236.469849 1768.653076,234.228149 
	C1767.402710,232.645630 1766.913452,228.652985 1768.008545,227.333496 
	C1773.207031,221.070297 1778.886597,215.162567 1784.849609,209.617249 
	C1785.961304,208.583405 1789.822754,208.968979 1791.248047,210.131012 
	C1794.189331,212.529129 1792.843750,215.465607 1790.168945,218.086792 
z"/>
<path fill="#FCFCFC" opacity="1.000000" stroke="none" 
	d="
M1756.810059,302.484650 
	C1758.220581,325.672943 1751.820679,345.389282 1734.044312,360.471741 
	C1730.265015,363.678345 1726.116699,366.681671 1721.682495,368.843170 
	C1705.098877,376.926819 1689.636719,386.467255 1677.593140,400.787750 
	C1662.810181,393.896973 1648.346802,387.201630 1633.958496,380.348511 
	C1632.953979,379.870117 1631.763184,378.111572 1631.909302,377.135498 
	C1634.733154,358.270386 1630.581421,340.142700 1627.129028,321.762848 
	C1620.683960,287.449432 1643.291626,254.072647 1677.381592,246.059341 
	C1714.526733,237.327850 1750.385132,261.648926 1756.292114,299.576447 
	C1756.420166,300.398956 1756.601685,301.213135 1756.810059,302.484650 
M1706.326660,278.129333 
	C1694.802612,273.325989 1694.726562,273.254211 1687.511719,280.899628 
	C1684.977051,283.585602 1682.853027,283.905762 1679.847900,281.617401 
	C1670.376465,274.404877 1671.935791,274.457001 1661.562012,281.530640 
	C1661.013062,281.904846 1660.494019,282.323242 1659.942505,282.693176 
	C1648.492310,290.372711 1650.058228,289.189117 1653.414185,300.573273 
	C1654.357788,303.774231 1653.683716,305.528961 1650.635376,306.842194 
	C1640.332764,311.280579 1640.356934,311.336182 1640.964478,322.285645 
	C1641.010620,323.116730 1641.015381,323.951660 1641.097290,324.779053 
	C1642.399902,337.906006 1641.218994,336.729218 1653.325684,339.584106 
	C1656.563477,340.347656 1657.634399,341.838470 1657.297119,345.153931 
	C1656.038208,357.529510 1654.260986,355.709320 1667.405518,361.786316 
	C1668.007446,362.064575 1668.630737,362.297363 1669.228516,362.584015 
	C1678.992920,367.266022 1679.090576,367.359833 1686.616333,359.369476 
	C1689.161499,356.667023 1691.183594,356.263092 1694.223999,358.537201 
	C1704.584717,366.286346 1702.064575,365.687622 1712.816650,358.503052 
	C1713.231689,358.225739 1713.630127,357.923737 1714.036499,357.633392 
	C1723.582520,350.813080 1723.447388,350.842865 1720.890991,339.240265 
	C1720.531616,337.609131 1721.942017,334.101685 1723.049194,333.863739 
	C1734.063721,331.496582 1734.932739,324.123199 1732.991821,315.093445 
	C1732.853394,314.449738 1732.904419,313.766327 1732.854736,313.102325 
	C1732.120483,303.287231 1732.172485,303.017731 1722.541504,301.142151 
	C1717.677002,300.194855 1716.149658,298.127441 1716.953125,293.323425 
	C1718.514160,283.988586 1719.150391,284.294342 1709.232300,279.568878 
	C1708.483032,279.211914 1707.745483,278.830444 1706.326660,278.129333 
z"/>
<path fill="#FAFAFA" opacity="1.000000" stroke="none" 
	d="
M1640.818115,403.116394 
	C1635.388428,400.577545 1630.305298,398.177673 1625.150269,395.743835 
	C1626.194092,393.490051 1627.099731,391.534637 1628.241333,389.069794 
	C1642.829346,395.865448 1657.303589,402.608093 1672.169434,409.533173 
	C1669.466675,415.317749 1666.837646,420.945007 1664.187256,426.617645 
	C1659.747314,425.776306 1655.115845,420.045898 1651.749756,426.332825 
	C1648.267822,432.836090 1655.641357,433.239502 1659.020996,436.051941 
	C1653.136841,443.218201 1645.739136,446.210602 1636.930786,445.201447 
	C1627.752441,444.149933 1621.454224,438.949707 1617.070068,429.263184 
	C1622.238159,431.591370 1626.363159,433.350494 1630.397461,435.297852 
	C1633.742065,436.912201 1637.198975,438.452423 1639.364990,434.070129 
	C1641.510864,429.728394 1638.414185,427.875519 1634.920898,426.314056 
	C1628.719971,423.542450 1622.607300,420.573853 1615.717773,417.340454 
	C1617.336060,413.251434 1618.927856,409.229492 1620.610840,404.976990 
	C1626.141357,407.540619 1631.082275,409.806396 1636.000732,412.120026 
	C1639.011963,413.536530 1641.982300,413.920654 1643.846802,410.623169 
	C1645.661499,407.413605 1644.358154,404.878296 1640.818115,403.116394 
z"/>
<path fill="#FCFCFC" opacity="1.000000" stroke="none" 
	d="
M1394.763672,329.360779 
	C1388.772705,324.143524 1387.932129,317.879517 1389.835693,310.997650 
	C1391.730103,304.149078 1397.049316,301.349792 1403.452881,300.330688 
	C1409.683105,299.339081 1415.708862,300.224701 1421.166138,303.669800 
	C1427.801880,307.858948 1431.075073,315.516388 1427.897095,322.500336 
	C1425.150513,328.535980 1419.177612,331.529358 1412.752319,332.659546 
	C1406.601318,333.741394 1400.487549,333.297089 1394.763672,329.360779 
z"/>
<path fill="#F9F9F9" opacity="1.000000" stroke="none" 
	d="
M625.878540,299.744507 
	C638.295532,298.171387 645.372742,301.473572 649.016724,310.628357 
	C636.574280,310.628357 624.293884,310.628357 611.520569,310.628357 
	C613.801208,303.790466 618.855896,300.848389 625.878540,299.744507 
z"/>
<path fill="#F9F9F9" opacity="1.000000" stroke="none" 
	d="
M432.981537,310.991150 
	C424.390625,310.993744 416.295624,310.993744 408.161194,310.993744 
	C409.675171,303.795776 415.586884,299.873444 425.547455,299.289246 
	C435.571106,298.701355 442.266724,302.455505 445.262054,310.988556 
	C441.176666,310.988556 437.327057,310.988556 432.981537,310.991150 
z"/>
<path fill="#FCFCFC" opacity="1.000000" stroke="none" 
	d="
M1041.349121,335.941040 
	C1028.002686,333.433472 1022.772888,327.230774 1023.969238,315.770782 
	C1024.088013,314.632385 1024.369385,313.489136 1024.734863,312.401764 
	C1027.877930,303.048615 1039.392578,298.548645 1051.653198,301.852386 
	C1061.412354,304.482086 1066.233765,312.358429 1064.226074,322.391754 
	C1062.679688,330.119659 1056.412964,335.150757 1047.276978,335.908203 
	C1045.459229,336.058960 1043.619873,335.949524 1041.349121,335.941040 
z"/>
<path fill="#060606" opacity="1.000000" stroke="none" 
	d="
M1706.664551,278.294861 
	C1707.745483,278.830444 1708.483032,279.211914 1709.232300,279.568878 
	C1719.150391,284.294342 1718.514160,283.988586 1716.953125,293.323425 
	C1716.149658,298.127441 1717.677002,300.194855 1722.541504,301.142151 
	C1732.172485,303.017731 1732.120483,303.287231 1732.854736,313.102325 
	C1732.904419,313.766327 1732.853394,314.449738 1732.991821,315.093445 
	C1734.932739,324.123199 1734.063721,331.496582 1723.049194,333.863739 
	C1721.942017,334.101685 1720.531616,337.609131 1720.890991,339.240265 
	C1723.447388,350.842865 1723.582520,350.813080 1714.036499,357.633392 
	C1713.630127,357.923737 1713.231689,358.225739 1712.816650,358.503052 
	C1702.064575,365.687622 1704.584717,366.286346 1694.223999,358.537201 
	C1691.183594,356.263092 1689.161499,356.667023 1686.616333,359.369476 
	C1679.090576,367.359833 1678.992920,367.266022 1669.228516,362.584015 
	C1668.630737,362.297363 1668.007446,362.064575 1667.405518,361.786316 
	C1654.260986,355.709320 1656.038208,357.529510 1657.297119,345.153931 
	C1657.634399,341.838470 1656.563477,340.347656 1653.325684,339.584106 
	C1641.218994,336.729218 1642.399902,337.906006 1641.097290,324.779053 
	C1641.015381,323.951660 1641.010620,323.116730 1640.964478,322.285645 
	C1640.356934,311.336182 1640.332764,311.280579 1650.635376,306.842194 
	C1653.683716,305.528961 1654.357788,303.774231 1653.414185,300.573273 
	C1650.058228,289.189117 1648.492310,290.372711 1659.942505,282.693176 
	C1660.494019,282.323242 1661.013062,281.904846 1661.562012,281.530640 
	C1671.935791,274.457001 1670.376465,274.404877 1679.847900,281.617401 
	C1682.853027,283.905762 1684.977051,283.585602 1687.511719,280.899628 
	C1694.726562,273.254211 1694.802612,273.325989 1706.664551,278.294861 
M1667.880005,340.109894 
	C1667.610474,343.415466 1666.052002,347.472595 1667.422119,349.822113 
	C1668.888672,352.337097 1673.112793,353.245819 1676.140503,354.841736 
	C1676.257935,354.903656 1676.451172,354.821594 1676.609131,354.806610 
	C1680.403442,351.463867 1684.583740,348.760254 1689.124268,346.970703 
	C1695.194336,344.578247 1698.686157,350.272797 1703.276123,352.569122 
	C1705.053345,351.412231 1706.647705,350.212006 1708.385498,349.279083 
	C1711.452393,347.632599 1712.255371,345.696075 1711.069824,342.100616 
	C1708.162354,333.282410 1710.835327,327.538116 1719.795532,324.233887 
	C1724.998047,322.315399 1722.599976,318.751068 1722.885254,315.689270 
	C1723.151611,312.827637 1722.112061,311.402496 1718.904907,310.681702 
	C1709.075928,308.472626 1705.718994,303.779846 1707.017212,293.719849 
	C1707.661377,288.727448 1703.895508,288.668396 1701.323730,287.085480 
	C1698.847168,285.561188 1696.742310,285.212189 1694.520996,288.006561 
	C1692.859863,290.096161 1690.515991,292.317871 1688.072388,292.971466 
	C1682.819458,294.376495 1677.615356,293.879486 1673.373047,289.534180 
	C1672.560791,288.702240 1670.294067,288.340027 1669.257202,288.864929 
	C1666.659912,290.179840 1664.383057,292.127808 1661.928467,293.856537 
	C1663.764038,299.497375 1666.518311,305.045166 1662.016113,310.093353 
	C1659.735718,312.650391 1656.811646,315.021606 1653.698242,316.355591 
	C1649.183838,318.289886 1651.418091,321.586487 1651.232056,324.386078 
	C1651.054321,327.060699 1651.677979,329.538452 1655.041992,329.595795 
	C1661.727417,329.709717 1664.862793,334.283112 1667.880005,340.109894 
z"/>
<path fill="#FAFAFA" opacity="1.000000" stroke="none" 
	d="
M1667.780273,339.722961 
	C1664.862793,334.283112 1661.727417,329.709717 1655.041992,329.595795 
	C1651.677979,329.538452 1651.054321,327.060699 1651.232056,324.386078 
	C1651.418091,321.586487 1649.183838,318.289886 1653.698242,316.355591 
	C1656.811646,315.021606 1659.735718,312.650391 1662.016113,310.093353 
	C1666.518311,305.045166 1663.764038,299.497375 1661.928467,293.856537 
	C1664.383057,292.127808 1666.659912,290.179840 1669.257202,288.864929 
	C1670.294067,288.340027 1672.560791,288.702240 1673.373047,289.534180 
	C1677.615356,293.879486 1682.819458,294.376495 1688.072388,292.971466 
	C1690.515991,292.317871 1692.859863,290.096161 1694.520996,288.006561 
	C1696.742310,285.212189 1698.847168,285.561188 1701.323730,287.085480 
	C1703.895508,288.668396 1707.661377,288.727448 1707.017212,293.719849 
	C1705.718994,303.779846 1709.075928,308.472626 1718.904907,310.681702 
	C1722.112061,311.402496 1723.151611,312.827637 1722.885254,315.689270 
	C1722.599976,318.751068 1724.998047,322.315399 1719.795532,324.233887 
	C1710.835327,327.538116 1708.162354,333.282410 1711.069824,342.100616 
	C1712.255371,345.696075 1711.452393,347.632599 1708.385498,349.279083 
	C1706.647705,350.212006 1705.053345,351.412231 1703.276123,352.569122 
	C1698.686157,350.272797 1695.194336,344.578247 1689.124268,346.970703 
	C1684.583740,348.760254 1680.403442,351.463867 1676.609131,354.806610 
	C1676.451172,354.821594 1676.257935,354.903656 1676.140503,354.841736 
	C1673.112793,353.245819 1668.888672,352.337097 1667.422119,349.822113 
	C1666.052002,347.472595 1667.610474,343.415466 1667.780273,339.722961 
M1693.011597,335.858948 
	C1694.184326,335.248383 1695.442505,334.759766 1696.515869,334.007355 
	C1703.168091,329.343781 1705.555908,321.163818 1702.499512,313.742645 
	C1699.650024,306.823944 1691.819214,302.248657 1684.943726,303.485321 
	C1674.544312,305.355804 1668.592407,313.891296 1670.828125,323.727753 
	C1673.022461,333.381653 1682.175415,338.641693 1693.011597,335.858948 
z"/>
<path fill="#060606" opacity="1.000000" stroke="none" 
	d="
M1692.623779,335.944702 
	C1682.175415,338.641693 1673.022461,333.381653 1670.828125,323.727753 
	C1668.592407,313.891296 1674.544312,305.355804 1684.943726,303.485321 
	C1691.819214,302.248657 1699.650024,306.823944 1702.499512,313.742645 
	C1705.555908,321.163818 1703.168091,329.343781 1696.515869,334.007355 
	C1695.442505,334.759766 1694.184326,335.248383 1692.623779,335.944702 
M1693.693359,321.121704 
	C1693.969849,317.785126 1692.854614,315.203156 1689.544434,314.025024 
	C1685.928223,312.738007 1682.061523,314.418549 1680.929199,317.844635 
	C1679.711914,321.527771 1680.968506,324.424561 1684.398438,326.181000 
	C1687.793823,327.919708 1691.249023,326.193298 1693.693359,321.121704 
z"/>
<path fill="#F4F4F4" opacity="1.000000" stroke="none" 
	d="
M1693.572754,321.487488 
	C1691.249023,326.193298 1687.793823,327.919708 1684.398438,326.181000 
	C1680.968506,324.424561 1679.711914,321.527771 1680.929199,317.844635 
	C1682.061523,314.418549 1685.928223,312.738007 1689.544434,314.025024 
	C1692.854614,315.203156 1693.969849,317.785126 1693.572754,321.487488 
z"/>
</svg>